<svg width="238" height="48" viewBox="0 0 238 48" fill="none" xmlns="http://www.w3.org/2000/svg">
<g clip-path="url(#clip0_5652_22932)">
<rect width="237" height="48" transform="translate(0.75)" fill="#F9F9F9"/>
<path d="M178.065 13.9287H176.459V15.5348C176.459 15.9478 176.643 16.4526 177.469 16.4526H179.075V14.8464C179.075 14.4793 178.937 13.9287 178.065 13.9287Z" fill="#356AE6"/>
<path d="M177.928 19.1142H176.643V32.3761C176.643 32.9268 177.01 33.2939 177.515 33.3398V33.3857H178.983V20.0778C178.937 19.4813 178.616 19.1142 177.928 19.1142Z" fill="#356AE6"/>
<path d="M100.192 29.4851C99.641 28.9344 98.9527 29.0721 98.5397 29.4392C96.8418 30.8617 95.2815 31.4124 93.2624 31.4124C89.2242 31.4124 86.0119 28.0166 86.0119 23.6572C86.0119 19.2977 89.1324 15.9478 93.2624 15.9478C95.2357 15.9478 96.8877 16.5443 98.4479 17.8751C98.815 18.1964 99.4575 18.334 99.9164 17.8292C100.329 17.4162 100.742 16.9573 100.742 16.9573L100.834 16.8656L100.742 16.7738C99.0903 15.1677 97.0253 13.6992 93.2624 13.6992C87.8016 13.6992 83.5798 18.1046 83.5798 23.703C83.5798 29.3474 87.7098 33.6151 93.2165 33.6151C96.2911 33.6151 98.5397 32.6055 100.834 30.2193L100.88 30.1275L100.834 30.0357C100.834 30.1275 100.696 29.944 100.192 29.4851Z" fill="#356AE6"/>
<path d="M135.067 18.7929C133.048 18.7929 131.442 19.6648 130.203 21.4086C129.652 20.3073 128.368 18.7011 125.706 18.7011C123.412 18.7011 122.173 19.8943 121.255 21.0874V20.0778C121.255 19.3895 120.842 18.9765 120.199 18.9765H118.914V33.248H120.199C120.842 33.248 121.209 33.0644 121.209 32.2843V25.1715C121.209 22.6935 122.815 20.8579 124.972 20.8579C127.174 20.8579 128.459 22.3723 128.459 24.9421V32.2843C128.459 32.9727 128.826 33.2939 129.469 33.2939H130.754V25.1256C130.754 22.1887 132.635 20.9038 134.517 20.9038C136.765 20.9038 138.05 22.4182 138.05 24.988V32.1467C138.05 32.7432 138.188 33.2939 139.106 33.2939H140.345V24.5291C140.391 20.9956 138.371 18.7929 135.067 18.7929Z" fill="#356AE6"/>
<path d="M151.633 18.8388C149.522 18.8388 147.779 19.7566 146.356 21.7298V20.2613C146.356 19.5271 145.943 19.16 145.209 19.16H144.062V36.6896C144.062 37.378 144.383 37.6992 145.071 37.6992H146.356V30.9076C147.779 32.7432 149.476 33.661 151.633 33.661C154.937 33.661 158.425 31.0453 158.425 26.2269C158.425 21.4086 154.937 18.8388 151.633 18.8388ZM156.039 26.2269C156.039 29.3474 154.065 31.5042 151.22 31.5042C148.788 31.5042 146.264 29.485 146.264 26.181C146.264 22.877 148.788 20.8579 151.22 20.8579C153.606 20.9038 156.039 22.7393 156.039 26.2269Z" fill="#356AE6"/>
<path d="M194.081 20.1237V21.3168C193.117 20.0778 191.419 18.7011 188.712 18.7011C187.014 18.7011 185.316 19.3436 184.077 20.4908C182.746 21.7298 182.012 23.5195 182.012 25.4468C182.012 29.8063 185.454 32.1466 188.712 32.1466C190.823 32.1466 192.612 31.2748 194.127 29.4392V30.8159C194.127 33.9363 192.291 35.726 189.171 35.726C187.656 35.726 186.188 35.3589 184.811 34.5788C184.444 34.3493 184.169 34.2575 183.939 34.2575C183.664 34.2575 183.389 34.3952 183.205 34.7164C182.838 35.313 182.7 35.5883 182.7 35.5883L182.654 35.6801L182.746 35.726C184.628 37.0568 186.784 37.6992 189.171 37.6992C193.76 37.6992 196.421 35.1753 196.421 30.77V19.0683H195.136C194.723 19.0683 194.081 19.4354 194.081 20.1237ZM194.218 25.5845C194.218 28.5214 191.649 30.2652 189.171 30.2652C186.463 30.2652 184.444 28.2461 184.444 25.5845C184.444 22.877 186.463 20.9497 189.171 20.9497C191.603 20.9038 194.218 22.5099 194.218 25.5845Z" fill="#356AE6"/>
<path d="M207.251 18.8388C205.232 18.8388 203.672 19.6648 202.57 21.3168V20.1237C202.57 19.4353 202.02 19.16 201.469 19.16H200.184V33.4315H202.524L202.479 25.2633C202.479 22.7393 204.176 20.9956 206.609 20.9956C208.995 20.9956 210.371 22.5099 210.371 25.1256V32.4678C210.371 33.1562 210.693 33.4315 211.289 33.4315H212.666V24.529C212.712 21.0415 210.601 18.8388 207.251 18.8388Z" fill="#356AE6"/>
<path d="M167.052 18.8847C165.263 18.8847 163.656 19.2518 161.913 20.0319L161.821 20.0778L161.867 20.1696C161.867 20.1696 162.096 20.8121 162.28 21.2709C162.463 21.7298 163.014 21.7757 163.427 21.5922C164.62 21.1333 165.676 20.9038 166.869 20.9038C169.484 20.9038 170.907 22.2346 170.907 24.6208V28.0625C170.907 30.2193 168.98 31.7337 166.318 31.7337C164.666 31.7337 162.876 30.9077 162.876 29.0721C162.876 27.3283 164.299 26.3646 166.869 26.3646H168.016C168.704 26.3646 169.025 26.0434 169.025 25.401V24.6208H166.639C162.739 24.6208 160.536 26.2729 160.536 29.118C160.536 31.2748 162.188 33.661 165.905 33.661C167.924 33.661 169.622 32.8809 170.861 31.4124V32.3761C170.861 33.0186 171.182 33.2939 171.871 33.2939H173.155V24.575C173.11 20.9497 170.953 18.8847 167.052 18.8847Z" fill="#356AE6"/>
<path d="M109.278 18.8847C107.075 18.8847 105.515 19.4354 104.138 20.0319L104.046 20.1237L104.092 20.2155C104.092 20.2155 104.322 20.8579 104.505 21.3168C104.689 21.7757 105.239 21.8216 105.652 21.6381C106.846 21.1792 107.901 20.9497 109.094 20.9497C111.71 20.9497 113.178 22.2805 113.178 24.6667V28.0625C113.178 30.2193 111.251 31.7337 108.589 31.7337C106.937 31.7337 105.194 30.9077 105.194 29.0721C105.194 27.3283 106.616 26.3646 109.14 26.3646H110.287C110.976 26.3646 111.297 26.0434 111.297 25.401V24.6208H108.956C105.056 24.6208 102.807 26.2729 102.807 29.118C102.807 31.2748 104.459 33.661 108.13 33.661C110.15 33.661 111.847 32.8809 113.132 31.4124V32.3761C113.132 33.0186 113.454 33.2939 114.096 33.2939H115.381V24.575C115.335 20.9497 113.178 18.8847 109.278 18.8847Z" fill="#356AE6"/>
<path d="M236.299 24.2078C235.978 23.9325 222.899 14.8006 222.303 14.4335L222.119 14.2958V16.5444C222.119 17.2786 222.486 17.508 222.945 17.8751L223.037 17.921C223.679 18.3799 232.995 24.8503 234.234 25.7222C232.995 26.5941 223.542 33.1562 222.945 33.5233C222.211 33.9822 222.165 34.3034 222.165 34.9459V37.1027C222.165 37.1027 236.069 27.4201 236.345 27.1906C236.987 26.7317 237.125 26.1352 237.125 25.7681V25.4927C237.125 25.0339 236.849 24.575 236.299 24.2078Z" fill="#356AE6"/>
<path d="M228.131 26.7317C228.498 26.7317 228.865 26.594 229.232 26.3187C229.691 25.9975 230.104 25.7222 230.104 25.7222L230.242 25.6304L230.104 25.5386C230.058 25.4927 223.955 21.2709 223.312 20.8579C223.037 20.6285 222.67 20.5826 222.44 20.7202C222.211 20.8579 222.027 21.0874 222.027 21.4545V22.877L222.073 22.9229C222.119 22.9688 226.295 25.8598 227.121 26.4105C227.488 26.6399 227.809 26.7317 228.131 26.7317Z" fill="#356AE6"/>
<path d="M33.5147 30.0816C33.01 29.5768 32.3675 29.8981 32.0922 30.1275C31.0367 31.0912 29.8436 31.5501 28.5587 31.5501C25.7595 31.5501 23.5568 29.2097 23.5568 26.1811C23.5568 23.1983 25.7136 20.8579 28.421 20.8579C29.9813 20.8579 30.9908 21.5463 31.8168 22.1887C32.4134 22.6935 32.9182 22.7394 33.3312 22.2805C33.6983 21.9134 34.1113 21.4545 34.1113 21.4545L34.2031 21.3627L34.1113 21.2709C32.5052 19.5271 30.7155 18.747 28.421 18.747C24.3369 18.747 21.0788 22.0051 21.0788 26.1811C21.0788 30.2652 24.3828 33.6151 28.421 33.6151C31.4038 33.6151 33.1017 32.1007 34.2031 30.8159H34.2948L34.2031 30.7241C34.2031 30.7241 33.9736 30.5405 33.5147 30.0816Z" fill="#356AE6"/>
<path d="M48.75 13.9287H47.1439V15.5348C47.1439 15.9478 47.3275 16.4526 48.1535 16.4526H49.7596V15.03C49.8055 14.3876 49.3925 13.9287 48.75 13.9287Z" fill="#356AE6"/>
<path d="M48.5664 19.1142H47.2356V32.3761C47.2356 32.9268 47.6027 33.2939 48.1075 33.3398V33.3857H49.5759V20.0778C49.6218 19.4813 49.2547 19.1142 48.5664 19.1142Z" fill="#356AE6"/>
<path d="M63.6639 19.8942C63.4803 20.399 59.9927 28.8426 59.3044 30.4028C58.662 28.7967 55.1744 20.3531 54.9908 19.8942C54.7614 19.3436 54.3025 19.0223 53.7059 19.0223H52.0539L52.1457 19.16C52.1916 19.3436 57.7442 32.1466 57.9736 32.6514C58.2031 33.248 58.5702 33.3856 59.1667 33.3856H59.4421C59.9927 33.3856 60.3599 33.1562 60.5893 32.6514C60.8187 32.1466 66.3713 19.4353 66.4172 19.2977L66.509 19.1141H64.9029C64.3063 19.1141 63.8933 19.3436 63.6639 19.8942Z" fill="#356AE6"/>
<path d="M78.0273 25.4009H72.5665C71.9699 25.4009 71.6028 25.768 71.6028 26.3646V27.2824H71.7405C74.3562 27.2365 77.3848 27.2365 78.6238 27.2365C79.3581 27.2365 79.9087 27.0529 80.3217 26.6399C80.6889 26.2269 80.8724 25.5845 80.8265 24.8503C80.4135 21.1791 77.7978 18.7929 74.2185 18.7929C70.3179 18.7929 67.3351 22.0051 67.3351 26.2269C67.3351 30.4946 70.4097 33.661 74.4938 33.661C76.8801 33.661 78.6697 32.835 80.3676 30.9994L80.4594 30.9076L80.3676 30.8158C80.3676 30.8158 80.0464 30.5405 79.6793 30.2193C79.1286 29.7604 78.6238 29.9439 78.3485 30.2193C77.339 31.1371 76.1 31.596 74.5856 31.596C71.9699 31.596 70.0426 29.7145 69.7214 26.9153C69.7214 26.9153 69.6755 26.594 69.6755 26.181C69.6755 25.7222 69.7214 25.4009 69.7214 25.4009C69.9967 22.6476 71.8323 20.7202 74.1726 20.7202C76.5129 20.7202 78.2108 22.2805 78.4403 24.6667C78.4862 24.8961 78.4403 25.0797 78.3944 25.1715C78.2567 25.355 78.165 25.4009 78.0273 25.4009Z" fill="#356AE6"/>
<path d="M12.0387 14.6629C11.7634 14.1122 11.4422 13.9287 10.8456 13.9287H10.2949C9.83604 13.9287 9.42304 14.204 9.1936 14.617C9.01004 15.03 0.933555 33.0185 0.841777 33.2021L0.75 33.3856H2.26434C2.90679 33.3856 3.31979 33.1103 3.64101 32.4679C3.91635 31.9172 5.24713 28.8885 5.47658 28.3837H11.3963C12.1305 28.3837 12.5894 27.9248 12.5894 27.2365V26.2269H6.39436L10.5703 16.8656C11.4422 18.7929 17.2701 32.1007 17.5454 32.6514C17.9125 33.3856 18.7844 33.3856 19.0598 33.3856H20.4364L20.3446 33.2021C20.3446 33.0185 12.3141 15.2594 12.0387 14.6629Z" fill="#356AE6"/>
<path d="M43.8399 31.3206C43.6105 31.183 43.2892 31.1371 42.968 31.2288C42.4632 31.3665 42.0961 31.4583 41.6372 31.4583C40.1688 31.4583 39.3887 30.7241 39.3887 29.2097V21.1791H43.8399V20.2155C43.8399 19.4812 43.1975 19.1141 42.6468 19.1141H39.3428V15.0759C39.3428 14.4334 38.8839 13.9745 38.1956 13.9745H37.0483V29.5309C37.0483 32.1466 38.4709 33.6151 41.1325 33.6151C42.142 33.6151 43.2892 33.3856 44.0235 33.0185L44.0694 32.9726V32.9267C44.0694 32.9267 44.1152 32.5137 44.1152 32.009C44.1611 31.6418 43.9776 31.4583 43.8399 31.3206Z" fill="#356AE6"/>
</g>
<defs>
<clipPath id="clip0_5652_22932">
<rect width="237" height="48" fill="white" transform="translate(0.75)"/>
</clipPath>
</defs>
</svg>
