<svg width="129" height="48" viewBox="0 0 129 48" fill="none" xmlns="http://www.w3.org/2000/svg">
<g clip-path="url(#clip0_5652_22945)">
<rect width="128" height="48" transform="translate(0.75)" fill="#F9F9F9"/>
<path d="M68.297 14.05C68.297 15.4915 67.1358 16.6527 65.6944 16.6527C64.2529 16.6527 63.0918 15.4915 63.0918 14.05C63.0918 12.6086 64.2129 11.4474 65.6944 11.4474C67.1758 11.4875 68.297 12.6486 68.297 14.05ZM57.5662 19.2953C57.5662 19.5355 57.5662 19.9359 57.5662 19.9359C57.5662 19.9359 56.325 18.3343 53.6824 18.3343C49.318 18.3343 45.9146 21.6577 45.9146 26.2623C45.9146 30.8268 49.2779 34.1902 53.6824 34.1902C56.365 34.1902 57.5662 32.5485 57.5662 32.5485V33.2292C57.5662 33.5495 57.8065 33.7898 58.1268 33.7898H61.37V18.7347C61.37 18.7347 58.4071 18.7347 58.1268 18.7347C57.8065 18.7347 57.5662 19.015 57.5662 19.2953ZM57.5662 28.9449C56.9656 29.8258 55.7644 30.5866 54.323 30.5866C51.7604 30.5866 49.7985 28.985 49.7985 26.2623C49.7985 23.5395 51.7604 21.9379 54.323 21.9379C55.7244 21.9379 57.0057 22.7387 57.5662 23.5796V28.9449ZM63.7724 18.7347H67.6163V33.7898H63.7724V18.7347ZM121.19 18.3343C118.547 18.3343 117.306 19.9359 117.306 19.9359V11.4875H113.462V33.7898C113.462 33.7898 116.425 33.7898 116.705 33.7898C117.026 33.7898 117.266 33.5095 117.266 33.2292V32.5485C117.266 32.5485 118.507 34.1902 121.15 34.1902C125.514 34.1902 128.918 30.8268 128.918 26.2623C128.918 21.6977 125.514 18.3343 121.19 18.3343ZM120.549 30.5465C119.068 30.5465 117.907 29.7858 117.306 28.9049V23.5395C117.907 22.7387 119.188 21.8979 120.549 21.8979C123.112 21.8979 125.074 23.4995 125.074 26.2222C125.074 28.9449 123.112 30.5465 120.549 30.5465ZM111.46 24.8609V33.8298H107.616V25.3013C107.616 22.8188 106.815 21.8178 104.653 21.8178C103.492 21.8178 102.291 22.4184 101.53 23.2993V33.7898H97.6863V18.7347H100.729C101.05 18.7347 101.29 19.015 101.29 19.2953V19.9359C102.411 18.7748 103.893 18.3343 105.374 18.3343C107.056 18.3343 108.457 18.8148 109.578 19.7758C110.94 20.8969 111.46 22.3383 111.46 24.8609ZM88.357 18.3343C85.7144 18.3343 84.4731 19.9359 84.4731 19.9359V11.4875H80.6293V33.7898C80.6293 33.7898 83.5923 33.7898 83.8725 33.7898C84.1929 33.7898 84.4331 33.5095 84.4331 33.2292V32.5485C84.4331 32.5485 85.6743 34.1902 88.317 34.1902C92.6813 34.1902 96.0847 30.8268 96.0847 26.2623C96.1248 21.6977 92.7214 18.3343 88.357 18.3343ZM87.7164 30.5465C86.2349 30.5465 85.0737 29.7858 84.4731 28.9049V23.5395C85.0737 22.7387 86.355 21.8979 87.7164 21.8979C90.2789 21.8979 92.2409 23.4995 92.2409 26.2222C92.2409 28.9449 90.2789 30.5465 87.7164 30.5465ZM77.306 18.3343C78.4671 18.3343 79.0677 18.5345 79.0677 18.5345V22.0981C79.0677 22.0981 75.8645 21.017 73.8625 23.2993V33.8298H70.0187V18.7347C70.0187 18.7347 72.9817 18.7347 73.2619 18.7347C73.5822 18.7347 73.8225 19.015 73.8225 19.2953V19.9359C74.5432 19.0951 76.1048 18.3343 77.306 18.3343ZM37.3861 32.4284C37.1859 31.9479 36.9857 31.4274 36.7855 30.987C36.4651 30.2663 36.1448 29.5856 35.8645 28.9449L35.8245 28.9049C33.0617 22.8989 30.0988 16.8128 26.9757 10.8068L26.8555 10.5666C26.5352 9.96597 26.2149 9.32533 25.8946 8.68468C25.4942 7.96396 25.0938 7.2032 24.4531 6.48248C23.1718 4.88088 21.33 4 19.368 4C17.366 4 15.5642 4.88088 14.2429 6.4024C13.6423 7.12312 13.2019 7.88388 12.8015 8.6046C12.4812 9.24525 12.1608 9.88589 11.8405 10.4865L11.7204 10.7267C8.63732 16.7327 5.63431 22.8188 2.87155 28.8248L2.83151 28.9049C2.55123 29.5455 2.23091 30.2262 1.91059 30.9469C1.71039 31.3874 1.51019 31.8679 1.30999 32.3884C0.78947 33.8699 0.62931 35.2713 0.82951 36.7127C1.26995 39.7157 3.27195 42.2382 6.03471 43.3594C7.07576 43.7998 8.15684 44 9.27796 44C9.59828 44 9.99868 43.96 10.319 43.9199C11.6403 43.7598 13.0017 43.3193 14.323 42.5586C15.9646 41.6376 17.5262 40.3163 19.288 38.3944C21.0497 40.3163 22.6513 41.6376 24.2529 42.5586C25.5743 43.3193 26.9356 43.7598 28.2569 43.9199C28.5772 43.96 28.9777 44 29.298 44C30.4191 44 31.5402 43.7998 32.5412 43.3594C35.344 42.2382 37.306 39.6757 37.7464 36.7127C38.0667 35.3113 37.9066 33.9099 37.3861 32.4284ZM19.328 34.5105C17.1658 31.7878 15.7644 29.2252 15.284 27.0631C15.0838 26.1421 15.0437 25.3413 15.1638 24.6206C15.2439 23.98 15.4842 23.4194 15.8045 22.9389C16.5652 21.8579 17.8465 21.1772 19.328 21.1772C20.8095 21.1772 22.1308 21.8178 22.8515 22.9389C23.1718 23.4194 23.4121 23.98 23.4922 24.6206C23.6123 25.3413 23.5722 26.1822 23.372 27.0631C22.8916 29.1852 21.4902 31.7477 19.328 34.5105ZM35.304 36.3924C35.0237 38.4745 33.6223 40.2763 31.6603 41.0771C30.6994 41.4775 29.6583 41.5976 28.6173 41.4775C27.6163 41.3574 26.6153 41.037 25.5743 40.4364C24.1328 39.6356 22.6914 38.3944 21.0097 36.5526C23.6523 33.3093 25.2539 30.3463 25.8545 27.7037C26.1348 26.4625 26.1749 25.3413 26.0547 24.3003C25.8946 23.2993 25.5342 22.3784 24.9736 21.5776C23.7324 19.7758 21.6503 18.7347 19.328 18.7347C17.0057 18.7347 14.9236 19.8158 13.6824 21.5776C13.1218 22.3784 12.7614 23.2993 12.6013 24.3003C12.4411 25.3413 12.4812 26.5025 12.8015 27.7037C13.4021 30.3463 15.0437 33.3493 17.6463 36.5926C16.0047 38.4344 14.5232 39.6757 13.0818 40.4765C12.0407 41.0771 11.0397 41.3974 10.0387 41.5175C8.95764 41.6376 7.9166 41.4775 6.99568 41.1171C5.03371 40.3163 3.63231 38.5145 3.35203 36.4324C3.23191 35.4314 3.31199 34.4304 3.71239 33.3093C3.83251 32.9089 4.03271 32.5085 4.23291 32.028C4.51319 31.3874 4.83351 30.7067 5.15383 30.026L5.19387 29.9459C7.95664 23.98 10.9196 17.8939 14.0027 11.968L14.1228 11.7277C14.4431 11.1271 14.7634 10.4865 15.0838 9.88589C15.4041 9.24524 15.7644 8.64464 16.2049 8.12412C17.0457 7.16316 18.1668 6.64264 19.4081 6.64264C20.6493 6.64264 21.7704 7.16316 22.6113 8.12412C23.0517 8.64464 23.4121 9.24524 23.7324 9.88589C24.0527 10.4865 24.373 11.1271 24.6934 11.7277L24.8135 11.968C27.8565 17.9339 30.8195 24.02 33.5823 29.986V30.026C33.9026 30.6667 34.1829 31.3874 34.5032 32.028C34.7034 32.5085 34.9036 32.9089 35.0237 33.3093C35.344 34.3503 35.4641 35.3514 35.304 36.3924Z" fill="#FF5A5F"/>
</g>
<defs>
<clipPath id="clip0_5652_22945">
<rect width="128" height="48" fill="white" transform="translate(0.75)"/>
</clipPath>
</defs>
</svg>
