<svg width="155" height="48" viewBox="0 0 155 48" fill="none" xmlns="http://www.w3.org/2000/svg">
<g clip-path="url(#clip0_5652_22951)">
<rect width="154" height="48" transform="translate(0.75)" fill="#F9F9F9"/>
<path d="M62.4577 25.6624L59.7806 18.6559C59.6714 18.3694 59.2539 18.3694 59.1444 18.6559L56.4678 25.6628C56.4488 25.7126 56.4425 25.7662 56.4494 25.8188C56.4563 25.8715 56.4762 25.9218 56.5075 25.9654C56.5387 26.009 56.5804 26.0446 56.6289 26.0692C56.6774 26.0938 56.7313 26.1066 56.786 26.1066H62.1395C62.1942 26.1066 62.2481 26.0937 62.2966 26.0691C62.3451 26.0445 62.3868 26.0089 62.418 25.9653C62.4492 25.9216 62.4691 25.8713 62.476 25.8186C62.4829 25.7659 62.4766 25.7124 62.4575 25.6626L62.4577 25.6624ZM63.6944 29.6006H55.2313C55.1621 29.6006 55.0945 29.6212 55.0377 29.6596C54.9808 29.698 54.9374 29.7523 54.9133 29.8154L53.2472 34.175C53.2231 34.238 53.1797 34.2923 53.1229 34.3307C53.066 34.3691 52.9984 34.3897 52.9292 34.3897H49.261C49.2056 34.3897 49.151 34.3765 49.102 34.3512C49.053 34.326 49.0112 34.2895 48.9801 34.2449C48.949 34.2003 48.9297 34.149 48.9238 34.0954C48.9179 34.0419 48.9256 33.9878 48.9462 33.9378L57.3914 13.5118C57.4167 13.4507 57.4602 13.3985 57.5164 13.3617C57.5725 13.3249 57.6387 13.3053 57.7065 13.3053H61.2188C61.3572 13.3053 61.4818 13.387 61.5336 13.5118L69.9786 33.9376C69.9993 33.9876 70.0071 34.0418 70.0012 34.0953C69.9954 34.1489 69.9761 34.2003 69.945 34.245C69.9139 34.2896 69.872 34.3262 69.823 34.3515C69.774 34.3767 69.7193 34.3899 69.6638 34.3899H65.9963C65.927 34.3899 65.8594 34.3693 65.8026 34.3309C65.7457 34.2924 65.7024 34.238 65.6783 34.175L64.0119 29.8154C63.9878 29.7523 63.9445 29.698 63.8876 29.6596C63.8308 29.6212 63.7632 29.6006 63.694 29.6006H63.6944ZM71.6972 20.4739H74.8346C74.9246 20.4739 75.0108 20.5086 75.0745 20.5703C75.1381 20.6321 75.1738 20.7159 75.1738 20.8032V34.0603C75.1738 34.1477 75.1381 34.2315 75.0745 34.2932C75.0108 34.355 74.9246 34.3897 74.8346 34.3897H71.6972C71.6073 34.3897 71.521 34.355 71.4573 34.2932C71.3937 34.2315 71.358 34.1477 71.358 34.0603V20.803C71.358 20.7157 71.3937 20.6319 71.4573 20.5701C71.521 20.5083 71.6073 20.4736 71.6972 20.4736V20.4739ZM86.6159 23.6986C86.6159 23.786 86.5802 23.8698 86.5166 23.9316C86.453 23.9933 86.3667 24.028 86.2767 24.028H86.1817C84.6305 24.028 83.4926 24.3895 82.7689 25.1123C82.0447 25.8352 81.6833 27.0302 81.6833 28.6968V34.0603C81.6833 34.1477 81.6476 34.2315 81.5839 34.2932C81.5203 34.355 81.434 34.3897 81.3441 34.3897H78.2375C78.1475 34.3897 78.0612 34.355 77.9976 34.2932C77.934 34.2315 77.8982 34.1477 77.8982 34.0603V20.803C77.8982 20.7157 77.934 20.6319 77.9976 20.5701C78.0612 20.5083 78.1475 20.4736 78.2375 20.4736H81.3128C81.4028 20.4736 81.4891 20.5083 81.5527 20.5701C81.6163 20.6319 81.6521 20.7157 81.6521 20.803V23.4253H81.7143C82.0865 22.341 82.6759 21.5081 83.4829 20.9253C84.2892 20.3432 85.282 20.0518 86.4608 20.0518H86.6159V23.6984V23.6986ZM95.1944 23.5761C95.1044 23.5761 95.0181 23.6108 94.9545 23.6726C94.8909 23.7344 94.8551 23.8181 94.8551 23.9055V29.4197C94.8551 29.982 94.9682 30.3836 95.1962 30.6245C95.4235 30.8654 95.8165 30.986 96.3749 30.986H96.6873C96.7772 30.986 96.8635 31.0207 96.9272 31.0824C96.9908 31.1442 97.0265 31.228 97.0265 31.3153V34.0902C97.0265 34.1776 96.9908 34.2613 96.9272 34.3231C96.8635 34.3849 96.7772 34.4196 96.6873 34.4196H95.3511C93.9654 34.4196 92.9004 34.0733 92.1558 33.3805C91.4111 32.6877 91.0388 31.659 91.0388 30.2932V23.9055C91.0388 23.8181 91.0031 23.7344 90.9395 23.6726C90.8758 23.6108 90.7895 23.5761 90.6996 23.5761H88.7412C88.6512 23.5761 88.5649 23.5414 88.5013 23.4797C88.4377 23.4179 88.402 23.3341 88.402 23.2467V20.803C88.402 20.7157 88.4377 20.6319 88.5013 20.5701C88.5649 20.5083 88.6512 20.4736 88.7412 20.4736H90.6998C90.7898 20.4736 90.8761 20.4389 90.9397 20.3772C91.0033 20.3154 91.039 20.2316 91.039 20.1443V15.2307C91.039 15.1433 91.0748 15.0595 91.1384 14.9977C91.202 14.936 91.2883 14.9013 91.3783 14.9013H94.5156C94.6056 14.9013 94.6919 14.936 94.7555 14.9977C94.8191 15.0595 94.8549 15.1433 94.8549 15.2307V20.1443C94.8549 20.2316 94.8906 20.3154 94.9543 20.3772C95.0179 20.4389 95.1042 20.4736 95.1941 20.4736H97.4628C97.5528 20.4736 97.6391 20.5083 97.7027 20.5701C97.7663 20.6319 97.802 20.7157 97.802 20.803V23.247C97.802 23.3343 97.7663 23.4181 97.7027 23.4799C97.6391 23.5416 97.5528 23.5763 97.4628 23.5763H95.1944V23.5761ZM109.561 30.2631C110.274 29.5402 110.631 28.5964 110.631 27.4316C110.631 26.2673 110.274 25.3231 109.561 24.6003C108.847 23.8774 107.911 23.516 106.753 23.516C105.594 23.516 104.659 23.8774 103.945 24.6003C103.232 25.3231 102.875 26.2673 102.875 27.4316C102.875 28.5964 103.232 29.5402 103.945 30.2631C104.659 30.986 105.594 31.3474 106.753 31.3474C107.911 31.3474 108.847 30.986 109.561 30.2631ZM102.317 33.9679C101.262 33.3858 100.429 32.5371 99.8192 31.4227C99.2088 30.3083 98.9039 28.9781 98.9039 27.4316C98.9039 25.8857 99.2088 24.555 99.8192 23.4406C100.429 22.3263 101.262 21.4782 102.317 20.8955C103.371 20.3131 104.529 20.022 105.791 20.022C106.908 20.022 107.864 20.2328 108.661 20.6544C109.457 21.0759 110.093 21.6686 110.569 22.4317H110.631V20.803C110.631 20.7157 110.667 20.6319 110.73 20.5701C110.794 20.5083 110.88 20.4736 110.97 20.4736H114.076C114.166 20.4736 114.253 20.5083 114.316 20.5701C114.38 20.6319 114.416 20.7157 114.416 20.803V34.0601C114.416 34.1475 114.38 34.2312 114.316 34.293C114.253 34.3548 114.166 34.3895 114.076 34.3895H110.97C110.88 34.3895 110.794 34.3548 110.73 34.293C110.667 34.2312 110.631 34.1475 110.631 34.0601V32.4317H110.569C110.093 33.1952 109.457 33.7872 108.661 34.2088C107.864 34.6304 106.908 34.8412 105.791 34.8412C104.529 34.8412 103.371 34.55 102.317 33.9679ZM127.335 30.2631C128.048 29.5402 128.405 28.5964 128.405 27.4316C128.405 26.2673 128.048 25.3231 127.335 24.6003C126.621 23.8774 125.685 23.516 124.527 23.516C123.369 23.516 122.433 23.8774 121.72 24.6003C121.006 25.3231 120.649 26.2673 120.649 27.4316C120.649 28.5964 121.006 29.5402 121.72 30.2631C122.433 30.986 123.369 31.3474 124.527 31.3474C125.685 31.3474 126.621 30.986 127.335 30.2631ZM122.619 34.2088C121.823 33.7872 121.187 33.1952 120.711 32.4317H120.649V34.0601C120.649 34.1475 120.613 34.2312 120.55 34.293C120.486 34.3548 120.4 34.3895 120.31 34.3895H117.173C117.083 34.3895 116.996 34.3548 116.933 34.293C116.869 34.2312 116.833 34.1475 116.833 34.0601V13.6341C116.833 13.5467 116.869 13.4629 116.933 13.4012C116.996 13.3394 117.083 13.3047 117.173 13.3047H120.31C120.4 13.3047 120.486 13.3394 120.55 13.4012C120.613 13.4629 120.649 13.5467 120.649 13.6341V22.4314H120.711C121.187 21.6684 121.823 21.0759 122.619 20.6544C123.415 20.2325 124.372 20.0217 125.489 20.0217C126.75 20.0217 127.909 20.3129 128.964 20.8952C130.018 21.478 130.851 22.326 131.461 23.4402C132.071 24.5552 132.376 25.8859 132.376 27.4318C132.376 28.9783 132.071 30.3083 131.461 31.4229C130.851 32.5373 130.019 33.386 128.964 33.9679C127.909 34.5502 126.751 34.8416 125.489 34.8416C124.372 34.8416 123.416 34.6308 122.62 34.209L122.619 34.2088ZM137.662 34.3897H134.525C134.435 34.3897 134.349 34.355 134.285 34.2932C134.222 34.2315 134.186 34.1477 134.186 34.0603V13.6347C134.186 13.5474 134.222 13.4636 134.285 13.4018C134.349 13.34 134.435 13.3053 134.525 13.3053H137.662C137.752 13.3053 137.839 13.34 137.902 13.4018C137.966 13.4636 138.002 13.5474 138.002 13.6347V34.0603C138.002 34.1477 137.966 34.2315 137.902 34.2932C137.839 34.355 137.752 34.3897 137.662 34.3897ZM145.063 23.6969C144.543 24.0908 144.192 24.6595 144.01 25.4035C143.96 25.6086 144.125 25.8053 144.342 25.8053H150.312C150.52 25.8053 150.682 25.6253 150.649 25.4268C150.53 24.723 150.219 24.162 149.716 23.7421C149.127 23.2503 148.356 23.0043 147.405 23.0043C146.454 23.0043 145.673 23.2351 145.063 23.6969ZM152.71 21.9648C153.93 23.2604 154.541 25.0928 154.541 27.4619V27.8554C154.541 27.9427 154.505 28.0265 154.441 28.0883C154.378 28.15 154.291 28.1847 154.201 28.1847H144.227C144.177 28.1848 144.128 28.1955 144.083 28.2159C144.038 28.2363 143.998 28.266 143.966 28.3029C143.934 28.3398 143.911 28.3831 143.898 28.4296C143.885 28.4762 143.882 28.525 143.891 28.5725C144.05 29.4526 144.451 30.1518 145.094 30.6698C145.828 31.2626 146.754 31.5584 147.871 31.5584C149.312 31.5584 150.647 31.0121 151.874 29.9192C152.024 29.7857 152.262 29.814 152.378 29.9763L153.903 32.1019C153.951 32.168 153.972 32.2488 153.963 32.3291C153.953 32.4093 153.913 32.4834 153.851 32.5371C153.103 33.1733 152.27 33.7102 151.376 34.1337C150.383 34.6053 149.215 34.8416 147.871 34.8416C146.32 34.8416 144.964 34.5351 143.806 33.9229C142.648 33.3107 141.748 32.4473 141.108 31.3325C140.466 30.2181 140.146 28.928 140.146 27.4619C140.146 25.9964 140.456 24.7013 141.076 23.5763C141.697 22.4521 142.565 21.5786 143.682 20.9558C144.799 20.3338 146.102 20.0222 147.591 20.0222C149.783 20.0222 151.49 20.6699 152.71 21.9648ZM75.5836 15.5728C75.5836 16.8152 74.5462 17.8224 73.2664 17.8224C71.9863 17.8224 70.9489 16.8152 70.9489 15.5725C70.9489 14.3299 71.9865 13.3227 73.2664 13.3227C74.5462 13.3227 75.5836 14.3299 75.5836 15.5725" fill="#333333"/>
<path d="M18.6171 7.36342L3.69929 13.3565C2.86972 13.6898 2.87831 14.8341 3.71309 15.1553L18.6931 20.9229C20.0093 21.4297 21.475 21.4297 22.7912 20.9229L37.7714 15.1551C38.606 14.8341 38.615 13.6901 37.785 13.3567L22.8676 7.3632C21.5067 6.81643 19.9778 6.81643 18.6169 7.3632" fill="#FCB400"/>
<path d="M22.0703 24.0742V38.4825C22.0703 39.1676 22.7821 39.6371 23.4382 39.3846L40.1305 33.094C40.3167 33.0223 40.4764 32.898 40.5889 32.7372C40.7014 32.5763 40.7615 32.3864 40.7615 32.1919V17.7838C40.7615 17.0985 40.0498 16.6292 39.3936 16.8818L22.7013 23.1724C22.5152 23.2441 22.3555 23.3684 22.243 23.5292C22.1305 23.69 22.0703 23.88 22.0703 24.0744" fill="#18BFFF"/>
<path d="M18.1733 24.8153L13.2194 27.1377L12.7164 27.3737L2.25897 32.2386C1.59631 32.5491 0.75 32.08 0.75 31.3651V17.8418C0.75 17.5832 0.886603 17.3598 1.0698 17.1919C1.14495 17.1192 1.23021 17.0571 1.3231 17.0074C1.57279 16.8618 1.92922 16.823 2.23228 16.9393L18.09 23.0398C18.8961 23.3503 18.9594 24.4469 18.1733 24.8156" fill="#F82B60"/>
<path d="M18.1738 24.8153L13.2199 27.1376L1.07031 17.1916C1.14548 17.1191 1.23074 17.057 1.32362 17.0074C1.5733 16.8618 1.92974 16.823 2.2328 16.9393L18.0906 23.0398C18.8966 23.3503 18.96 24.4469 18.1738 24.8156" fill="black" fill-opacity="0.25"/>
</g>
<defs>
<clipPath id="clip0_5652_22951">
<rect width="154" height="48" fill="white" transform="translate(0.75)"/>
</clipPath>
</defs>
</svg>
