<svg width="145" height="48" viewBox="0 0 145 48" fill="none" xmlns="http://www.w3.org/2000/svg">
<g clip-path="url(#clip0_5652_22958)">
<rect width="144" height="48" transform="translate(0.75)" fill="#F9F9F9"/>
<path d="M144.483 23.6228V19.0287C143.584 19.0647 140.888 19.4314 139.695 20.8621V19.3451H134.662V34.6516H139.695V27.4189C140.414 24.0111 143.671 23.6516 144.497 23.6228H144.483ZM99.4046 23.8026C98.8646 23.3196 98.2473 22.9308 97.5785 22.6523C97.0277 22.3838 96.4225 22.246 95.8098 22.2496C95.356 22.2452 94.9067 22.3409 94.4942 22.53C94.3062 22.6063 94.1469 22.7396 94.0385 22.9111C93.9302 23.0826 93.8783 23.2837 93.8902 23.4862C93.8853 23.6916 93.9471 23.893 94.0663 24.0603C94.1856 24.2275 94.3559 24.3515 94.5517 24.4137C95.2541 24.6737 95.9751 24.8804 96.7085 25.032C97.3059 25.1615 97.8924 25.3369 98.4628 25.5568C99.0364 25.7756 99.5743 26.0785 100.059 26.4555C100.532 26.8274 100.923 27.2924 101.209 27.8215C101.51 28.413 101.659 29.0705 101.641 29.734C101.672 30.5442 101.489 31.3484 101.111 32.0654C100.732 32.7825 100.171 33.3868 99.4837 33.8176C98.8248 34.2447 98.0941 34.5492 97.3268 34.7163C96.5544 34.9016 95.763 34.9957 94.9687 34.9967C93.7099 34.9968 92.4595 34.7928 91.2661 34.3928C90.1329 34.0403 89.0969 33.43 88.2393 32.6098L90.7268 29.4967C91.3331 30.0505 92.022 30.5065 92.7687 30.8483C93.4221 31.177 94.1438 31.347 94.8752 31.3444C95.302 31.34 95.7223 31.2393 96.1046 31.0496C96.2989 30.9593 96.4609 30.8117 96.5689 30.6267C96.6768 30.4416 96.7256 30.2279 96.7085 30.0143C96.7112 29.7867 96.6435 29.5638 96.5149 29.3759C96.3862 29.1881 96.2028 29.0445 95.9896 28.9647C95.2398 28.6527 94.4623 28.412 93.6674 28.2457C93.1177 28.1167 92.5772 27.951 92.0497 27.7496C91.5301 27.5478 91.045 27.2665 90.6118 26.9157C90.198 26.5626 89.8562 26.1329 89.6053 25.6503C89.3246 25.0731 89.1866 24.437 89.2027 23.7954C89.1791 22.9656 89.383 22.1451 89.7922 21.4229C90.1773 20.7728 90.7061 20.2195 91.338 19.8052C91.9656 19.3847 92.6613 19.0758 93.3942 18.8921C94.1312 18.6992 94.8897 18.6001 95.6517 18.5974C96.8042 18.5962 97.9497 18.7782 99.0451 19.1366C100.091 19.4633 101.051 20.0183 101.856 20.7614L99.4046 23.8026ZM128.86 25.0104C128.854 24.3058 128.599 23.626 128.141 23.0908C127.845 22.7883 127.486 22.5547 127.09 22.4068C126.694 22.259 126.269 22.2004 125.848 22.2353C125.389 22.2314 124.934 22.3093 124.503 22.4653C124.112 22.6084 123.749 22.8202 123.432 23.0908C123.137 23.3551 122.893 23.6721 122.713 24.0255C122.553 24.3322 122.453 24.6664 122.418 25.0104H128.86ZM133.497 27.0882V27.6993C133.509 27.8933 133.509 28.0877 133.497 28.2817H122.397C122.429 28.6925 122.56 29.0895 122.778 29.4392C122.994 29.7902 123.275 30.0974 123.605 30.3451C123.949 30.6028 124.333 30.8042 124.741 30.9418C125.159 31.0855 125.599 31.1584 126.042 31.1575C126.744 31.1779 127.44 31.0248 128.069 30.7117C128.599 30.4348 129.058 30.0415 129.414 29.5614L132.915 31.7686C132.185 32.8091 131.193 33.6377 130.039 34.1699C128.766 34.7432 127.381 35.0256 125.984 34.9967C124.876 35.0031 123.775 34.8208 122.727 34.4575C121.739 34.1208 120.827 33.5904 120.046 32.8973C119.269 32.1961 118.654 31.3353 118.241 30.3738C117.782 29.2925 117.556 28.1262 117.58 26.9516C117.565 25.7915 117.782 24.6401 118.22 23.5653C118.623 22.6005 119.217 21.7274 119.967 20.9987C120.721 20.2864 121.607 19.7294 122.576 19.3595C123.621 18.9619 124.73 18.7643 125.848 18.7771C126.907 18.7671 127.959 18.9599 128.946 19.3451C129.864 19.7072 130.692 20.2668 131.369 20.9843C132.066 21.7342 132.604 22.617 132.951 23.5797C133.344 24.702 133.536 25.8848 133.519 27.0738L133.497 27.0882ZM72.868 23.4934V18.8706H68.5543V15.4412C68.4465 13.464 67.5118 11.9902 63.6942 11.9902V29.7987C63.6907 30.5123 63.7826 31.2231 63.9674 31.9124C64.1304 32.518 64.425 33.0801 64.8301 33.5588C65.264 34.0356 65.8102 34.3964 66.419 34.6085C67.2695 34.879 68.1581 35.0101 69.0504 34.9967C70.3503 35.0126 71.6428 34.7984 72.868 34.364V30.266C72.0502 30.4756 71.2103 30.5866 70.3661 30.5967C70.1032 30.6292 69.8364 30.6 69.5868 30.5114C69.3372 30.4228 69.1117 30.2772 68.9282 30.0862C68.6407 29.6194 68.512 29.0721 68.5615 28.5261V23.4934H72.868Z" fill="#008FB4"/>
<path d="M113.237 26.4844L118.917 19.2949H112.907L107.874 25.6504V15.5851C107.781 13.5145 106.882 11.9903 103.007 11.9903V34.6517H107.874V27.3328L113.626 34.6517H119.701L113.237 26.4844ZM87.3838 34.6373V24.5001C87.3838 20.1361 83.9185 18.5687 80.8486 18.5687C78.4313 18.4481 76.0534 19.2152 74.1623 20.7256L76.7002 23.8746C77.7221 22.977 78.9991 22.4215 80.3525 22.2857C82.2002 22.2857 82.5812 23.3426 82.5812 24.6942V24.953H80.9204C76.6499 24.953 74.0832 26.8008 74.0832 30.0936C74.0832 33.6883 77.2466 34.623 81.1002 34.623L87.3838 34.6373ZM82.5812 31.4524H80.9852C79.7414 31.4524 78.9793 30.9347 78.9793 29.8635C78.9793 28.7923 79.7414 28.174 81.2655 28.174H82.5812V31.4524ZM45.965 14.7727C45.965 15.5163 46.2604 16.2295 46.7862 16.7553C47.312 17.2812 48.0252 17.5766 48.7689 17.5766C49.5125 17.5766 50.2257 17.2812 50.7515 16.7553C51.2774 16.2295 51.5728 15.5163 51.5728 14.7727C51.5728 14.029 51.2774 13.3158 50.7515 12.79C50.2257 12.2642 49.5125 11.9688 48.7689 11.9688C48.0252 11.9688 47.312 12.2642 46.7862 12.79C46.2604 13.3158 45.965 14.029 45.965 14.7727ZM46.4395 18.9066H46.231V34.6517H51.2996V22.221C51.1558 20.3086 50.178 18.9066 46.4395 18.9066ZM62.58 23.623V19.0289C61.6885 19.0648 58.9852 19.4315 57.7917 20.8622V19.3452H52.7591V34.6517H57.7917V27.5413C57.7883 27.5006 57.7883 27.4597 57.7917 27.4191C58.5107 24.0112 61.7604 23.6517 62.5943 23.623H62.58ZM143.024 32.3439H142.743V32.8759H143.024C143.06 32.8779 143.096 32.8724 143.13 32.8599C143.164 32.8474 143.195 32.8282 143.221 32.8033C143.247 32.7784 143.268 32.7484 143.282 32.7151C143.297 32.6819 143.304 32.6461 143.304 32.6099C143.304 32.5737 143.297 32.5379 143.282 32.5047C143.268 32.4714 143.247 32.4414 143.221 32.4165C143.195 32.3916 143.164 32.3723 143.13 32.3598C143.096 32.3474 143.06 32.3419 143.024 32.3439ZM143.304 33.8177L142.959 33.0988H142.743V33.8177H142.427V32.0707H143.103C143.174 32.0687 143.246 32.0813 143.312 32.1076C143.379 32.1339 143.44 32.1735 143.491 32.2238C143.542 32.2742 143.582 32.3344 143.609 32.4007C143.637 32.467 143.65 32.5382 143.649 32.6099C143.65 32.7145 143.618 32.8167 143.557 32.902C143.496 32.9872 143.41 33.051 143.311 33.0844L143.692 33.8034L143.304 33.8177ZM142.973 31.6609C142.711 31.6479 142.45 31.714 142.226 31.8505C142.001 31.987 141.822 32.1876 141.713 32.4266C141.603 32.6656 141.568 32.9319 141.611 33.1913C141.654 33.4506 141.774 33.691 141.955 33.8816C142.136 34.0721 142.37 34.204 142.627 34.2602C142.884 34.3164 143.152 34.2944 143.396 34.197C143.64 34.0997 143.85 33.9313 143.997 33.7138C144.145 33.4962 144.224 33.2395 144.224 32.9766C144.229 32.8079 144.2 32.6399 144.14 32.4824C144.08 32.3248 143.989 32.1808 143.872 32.0585C143.756 31.9362 143.617 31.8381 143.463 31.7699C143.308 31.7016 143.142 31.6646 142.973 31.6609ZM142.973 34.5942C142.653 34.6041 142.336 34.5185 142.064 34.3482C141.793 34.1778 141.577 33.9305 141.446 33.6376C141.316 33.3448 141.275 33.0196 141.329 32.7034C141.383 32.3872 141.53 32.0943 141.752 31.862C141.973 31.6296 142.258 31.4683 142.571 31.3985C142.884 31.3286 143.211 31.3535 143.51 31.4699C143.809 31.5863 144.067 31.7889 144.25 32.0521C144.434 32.3153 144.535 32.627 144.541 32.9478C144.546 33.3699 144.385 33.7771 144.091 34.0802C143.797 34.3834 143.395 34.5579 142.973 34.5654V34.5942ZM32.082 25.7726L34.3323 19.3021L36.5826 25.7726H32.082ZM36.6977 11.9903H32.1754L25.1944 30.4387H22.448C20.5756 30.518 18.7203 30.0535 17.1062 29.1014C16.4628 28.6886 15.9407 28.1122 15.5933 27.4313C15.2459 26.7504 15.0857 25.9894 15.1291 25.2262V23.0694H12.9003C10.8272 23.0125 8.84193 22.22 7.29966 20.8334C6.09474 19.5697 5.33714 17.9459 5.1428 16.2106H20.7657C23.6055 16.2106 24.6552 17.5982 25.3094 18.8419C25.6309 19.4658 25.8724 20.1276 26.0284 20.8119L28.0055 15.5851C28.0055 15.5851 26.3519 11.9903 20.7657 11.9903H0.75V14.1472C0.75 18.2165 1.95784 21.4805 4.34477 23.8243C6.21844 25.5974 8.5888 26.7563 11.1389 27.1459C12.0376 31.7615 16.2794 34.6373 22.448 34.6373H28.8611L30.299 30.4818H38.3297L39.7676 34.6302H45.2532L36.6977 11.9903Z" fill="#008FB4"/>
</g>
<defs>
<clipPath id="clip0_5652_22958">
<rect width="144" height="48" fill="white" transform="translate(0.75)"/>
</clipPath>
</defs>
</svg>
