<svg width="165" height="48" viewBox="0 0 165 48" fill="none" xmlns="http://www.w3.org/2000/svg">
<g clip-path="url(#clip0_5652_22934)">
<path d="M40.375 32.5728L41.3895 32.3639C42.2847 32.1252 42.5234 32.0058 42.5234 30.2155V16.1615C42.5234 14.3712 42.2548 14.222 41.3895 14.0131L40.375 13.8042V12.9688H56.5476L56.846 18.9067H55.921C55.175 17.2655 54.6976 16.4002 54.25 15.7437C53.2952 14.3712 52.6685 14.2518 50.6097 14.2518C49.0879 14.2518 48.3419 14.4308 47.8944 14.5502V22.1591H48.7C50.7887 22.1591 51.2661 21.9204 51.6242 21.2639C52.0419 20.5179 52.2806 19.951 52.5492 18.9962H53.4444V26.6946H52.5492C52.2806 25.7696 52.0419 25.1728 51.6242 24.3075C51.2661 23.5615 50.8782 23.4123 48.7 23.4123H47.8944V29.1413C47.8944 31.797 47.9839 32.0954 50.8782 32.0954C53.2653 32.0954 53.7427 31.797 54.7274 30.3349C55.2645 29.5292 55.8315 28.276 56.6073 26.3962H57.5621L57.1444 33.4083H40.4048L40.375 32.5728ZM60.0685 21.3833C59.3823 19.7123 59.054 19.2946 58.3081 19.0558L57.7411 18.8768V18.101H66.6032V18.8768L65.7976 19.0857C65.171 19.2647 64.8726 19.5631 64.8726 20.2792C64.8726 20.697 65.0218 21.2042 65.2605 21.8607L67.7371 28.6639H67.8863L70.2734 21.8607C70.5419 21.1446 70.6613 20.6373 70.6613 20.2196C70.6613 19.5631 70.3629 19.2349 69.7363 19.0857L68.9306 18.8768V18.101H74.3911V18.8768L73.8242 19.0558C73.0484 19.3244 72.7202 19.772 72.004 21.7115L67.4387 33.4083H64.9323L60.0685 21.3833ZM73.7048 25.68C73.7048 20.5478 77.4944 17.7131 81.4032 17.7131C85.4613 17.7131 87.9976 19.7421 88.0871 25.0833H78.3298C78.4193 29.9171 80.2395 31.23 83.2831 31.23C85.1032 31.23 86.5056 30.6929 87.6097 30.126V31.1107C86.5653 32.2446 84.3274 33.7962 81.3734 33.7962C76.2411 33.7365 73.7048 30.6929 73.7048 25.68ZM78.3298 23.9494L83.3726 23.6808C83.3726 20.13 82.8952 18.8171 81.1347 18.8171C79.6427 18.8171 78.4492 20.2494 78.3298 23.9494ZM95.8452 19.9808C96.6806 19.0857 98.3814 17.6236 100.351 17.6236C101.604 17.6236 102.648 18.6381 102.648 19.9212C102.648 21.2042 101.634 22.2188 100.351 22.2188C99.4258 22.2188 98.5903 21.6518 98.2621 20.8462C98.0831 20.5179 97.6952 20.4284 97.4266 20.4284C96.8895 20.4284 96.2629 20.8163 95.875 21.1744V30.7228C95.875 32.0954 95.9944 32.2446 96.8895 32.3937L97.8742 32.6026V33.4083H89.3702V32.6026L90.146 32.3937C91.1306 32.1252 91.25 31.976 91.25 30.7228V21.5623C91.25 20.3091 91.1008 20.2196 90.2653 19.6526L89.2806 18.9962V18.3994L95.4871 17.6833L95.8153 17.922L95.7556 19.951L95.8452 19.9808ZM103.544 32.6026L104.319 32.3937C105.304 32.1252 105.423 31.976 105.423 30.7228V21.5623C105.423 20.3091 105.274 20.2196 104.439 19.6526L103.454 18.9962V18.3994L109.66 17.6833L109.989 17.8921L109.929 19.772H110.048C111.6 18.6679 113.54 17.6833 115.688 17.6833C118.194 17.6833 119.537 18.9663 119.537 21.622V30.6929C119.537 31.976 119.656 32.1252 120.611 32.3639L121.387 32.5728V33.3784H113.181V32.5728L113.898 32.3937C114.793 32.155 114.882 32.0655 114.882 30.6929V22.7857C114.882 20.9954 114.226 20.4284 112.853 20.4284C111.809 20.4284 110.765 20.6671 110.108 20.8163V30.7228C110.108 32.1252 110.198 32.1849 111.093 32.4236L111.809 32.6026V33.4083H103.603V32.6026H103.544ZM121.954 25.7696C121.954 20.13 125.952 17.7131 129.921 17.7131C134.188 17.7131 137.918 20.2792 137.918 25.6204C137.918 31.2599 133.979 33.7365 129.921 33.7365C125.654 33.7365 121.954 31.1704 121.954 25.7696ZM132.965 25.9187C132.965 19.9808 131.831 18.847 129.802 18.847C127.952 18.847 126.848 20.1897 126.848 25.2623C126.848 31.2897 127.832 32.6026 129.981 32.6026C131.741 32.6026 132.965 31.5583 132.965 25.9187ZM140.454 29.6784V19.8317H138.604V19.1155C140.902 18.2204 142.662 16.5196 143.498 14.1623H145.169V18.101H149.077L148.689 19.8317H145.169V29.38C145.169 30.8421 145.616 31.4389 147.078 31.4389C147.794 31.4389 148.66 31.2897 149.197 31.1704V32.0058C148.481 32.6623 147.019 33.7365 144.542 33.7365C141.886 33.7365 140.454 32.5728 140.454 29.6784ZM149.794 25.68C149.794 20.5478 153.583 17.7131 157.492 17.7131C161.55 17.7131 164.086 19.7421 164.176 25.0833H154.448C154.538 29.9171 156.358 31.23 159.402 31.23C161.222 31.23 162.624 30.6929 163.728 30.126V31.1107C162.684 32.2446 160.446 33.7962 157.492 33.7962C152.33 33.7365 149.794 30.6929 149.794 25.68ZM154.419 23.9494L159.461 23.6808C159.461 20.13 158.984 18.8171 157.223 18.8171C155.731 18.8171 154.538 20.2494 154.419 23.9494Z" fill="#222222"/>
<path d="M10.4777 15.266C10.4777 15.624 10.4479 16.2208 10.0898 16.6087C9.70194 16.9668 9.10516 16.9966 8.7471 16.9966H4.92775C3.82371 16.9966 3.16726 16.9966 2.71968 17.0563C2.48097 17.0861 2.18259 17.2055 2.03339 17.2652C1.97371 17.295 1.97371 17.2652 2.00355 17.2353L10.7165 8.37324C10.7463 8.3434 10.7761 8.3434 10.7463 8.40307C10.6866 8.55227 10.5673 8.85066 10.5374 9.08937C10.4777 9.53695 10.4777 10.1934 10.4777 11.2974V15.266ZM18.5939 42.0611C17.5794 41.4047 17.0423 40.5394 16.8334 40.0023C16.6245 39.495 16.5052 38.9281 16.5052 38.3611C16.5052 35.8845 18.5342 33.8555 21.0406 33.8555C21.7866 33.8555 22.3834 34.4523 22.3834 35.1982C22.3834 35.7055 22.1148 36.1232 21.6971 36.3619C21.5479 36.4515 21.339 36.5111 21.1898 36.541C21.0406 36.5708 20.4737 36.6305 20.2052 36.8692C19.9068 37.1079 19.6681 37.4958 19.6681 37.9136C19.6681 38.3611 19.8471 38.7789 20.1455 39.0773C20.6826 39.6144 21.3987 39.9128 22.1745 39.9128C24.2035 39.9128 25.8447 38.2716 25.8447 36.2426C25.8447 34.4224 24.6213 32.8111 23.01 32.095C22.7713 31.9757 22.3834 31.8861 22.0253 31.7966C21.5777 31.7071 21.16 31.6474 21.1302 31.6474C19.8769 31.4982 16.7439 30.5136 16.535 27.7386C16.535 27.7386 15.61 31.916 13.76 33.0499C13.581 33.1394 13.3423 33.2289 13.0737 33.2886C12.8052 33.3482 12.5068 33.3781 12.4173 33.3781C9.40355 33.5571 6.21081 32.6023 4.00275 30.3345C4.00275 30.3345 2.51081 29.1111 1.735 25.6797C1.55597 24.8442 1.19791 23.3523 0.989037 21.9499C0.899521 21.4426 0.869682 21.0547 0.839844 20.6966C0.839844 19.2345 1.735 18.2499 2.86888 18.1007C2.89871 18.1007 2.98823 18.1007 3.04791 18.1007C3.7342 18.1007 8.95597 18.1007 8.95597 18.1007C10.0003 18.1007 10.5971 17.8321 10.985 17.474C11.4923 16.9966 11.6116 16.3103 11.6116 15.5047C11.6116 15.5047 11.6116 10.074 11.6116 9.38775C11.6116 9.35791 11.6116 9.23856 11.6116 9.20872C11.7608 8.10469 12.7455 7.17969 14.2076 7.17969C14.2076 7.17969 14.6552 7.17969 14.9237 7.17969C15.2221 7.17969 15.5802 7.20953 15.9084 7.23936C16.1471 7.2692 16.356 7.32888 16.714 7.4184C18.5342 7.86598 18.9221 9.71598 18.9221 9.71598C18.9221 9.71598 22.3535 10.3128 24.0842 10.6111C25.7253 10.9095 29.7834 11.1781 30.5592 15.266C32.3794 24.9934 31.2753 34.4224 31.1858 34.4224C29.9027 43.6128 22.264 43.1652 22.264 43.1652C20.6229 43.1652 19.3995 42.6281 18.5939 42.0611ZM25.4568 22.5168C24.4721 22.4273 23.6366 22.8152 23.3382 23.5611C23.2785 23.7103 23.2189 23.8894 23.2487 23.9789C23.2785 24.0684 23.3382 24.0982 23.3979 24.1281C23.756 24.3071 24.3527 24.3966 25.2181 24.4861C26.0834 24.5757 26.6802 24.6353 27.0681 24.5757C27.1277 24.5757 27.1874 24.5458 27.2471 24.4563C27.3068 24.3668 27.2769 24.1878 27.2769 24.0386C27.1576 23.2031 26.4414 22.6361 25.4568 22.5168Z" fill="#00A82D"/>
</g>
<defs>
<clipPath id="clip0_5652_22934">
<rect width="164" height="48" fill="white" transform="translate(0.75)"/>
</clipPath>
</defs>
</svg>
