<svg width="95" height="48" viewBox="0 0 95 48" fill="none" xmlns="http://www.w3.org/2000/svg">
<g clip-path="url(#clip0_5652_22940)">
<rect width="94" height="48" transform="translate(0.75)" fill="#F9F9F9"/>
<path d="M0.75 8V34.5313L4.14444 34.5444V21.9105H12.3042V18.5678H4.13139V11.3296H14.7717V8H0.75ZM20.8556 13.3957C21.4442 13.3957 22.0087 13.16 22.4249 12.7405C22.8412 12.3209 23.075 11.7518 23.075 11.1585C23.075 10.5651 22.8412 9.99607 22.4249 9.5765C22.0087 9.15694 21.4442 8.92122 20.8556 8.92122C20.2669 8.92122 19.7024 9.15694 19.2862 9.5765C18.8699 9.99607 18.6361 10.5651 18.6361 11.1585C18.6361 11.7518 18.8699 12.3209 19.2862 12.7405C19.7024 13.16 20.2669 13.3957 20.8556 13.3957ZM19.1453 16.7253V34.5444H22.5397V16.7253H19.1453Z" fill="black"/>
<path fill-rule="evenodd" clip-rule="evenodd" d="M35.0861 16.212C30.595 16.212 27.4616 20.0417 27.4616 24.5952C27.4616 29.1487 30.595 32.9783 35.0861 32.9783C37.1488 32.9783 38.8461 32.1887 40.0863 30.8727V33.2416C40.095 33.9494 39.9643 34.6519 39.702 35.3085C39.4396 35.9651 39.0508 36.5627 38.5579 37.0669C38.065 37.5711 37.4778 37.9718 36.8304 38.2459C36.1829 38.52 35.488 38.6619 34.7858 38.6636C33.7022 38.6636 32.6316 38.2425 31.783 37.6371L30.0858 40.5982C31.3982 41.4533 32.9152 41.9355 34.4768 41.994C36.0384 42.0524 37.5867 41.6849 38.9583 40.9302C40.33 40.1756 41.4741 39.0617 42.2701 37.7061C43.0661 36.3506 43.4844 34.8036 43.4808 33.2284V16.7385H40.0863V18.3309C38.8461 17.0148 37.1488 16.2252 35.0861 16.2252V16.212ZM30.843 24.5952C30.843 21.7657 32.9841 19.5416 35.4647 19.5416C37.9452 19.5416 40.0733 21.7789 40.0733 24.5952C40.0733 27.4247 37.9322 29.6356 35.4647 29.6356C32.9841 29.6356 30.843 27.4247 30.843 24.5952Z" fill="black"/>
<path d="M55.6747 19.5417C54.7038 19.559 53.7788 19.9608 53.0996 20.6602C52.4204 21.3597 52.0416 22.3005 52.0452 23.2792V34.5445H48.6508V16.7254H52.0452V18.3573C52.5531 17.6788 53.2128 17.1308 53.9705 16.758C54.7283 16.3853 55.5627 16.1982 56.4058 16.2121C58.7819 16.2121 60.6097 17.3966 61.6541 19.2127C62.2368 18.3023 63.0343 17.5516 63.9752 17.028C64.9162 16.5044 65.9713 16.224 67.0461 16.2121C70.8974 16.2121 73.3127 19.3443 73.3127 23.2266V34.5445H69.9444V23.2661C69.948 22.2873 69.5692 21.3465 68.89 20.6471C68.2108 19.9476 67.2858 19.5458 66.3149 19.5285C65.3441 19.5458 64.4191 19.9476 63.7399 20.6471C63.0607 21.3465 62.6819 22.2873 62.6855 23.2661V34.5313H59.291V23.2661C59.2947 22.2896 58.9177 21.3507 58.2413 20.6516C57.5649 19.9525 56.6432 19.5492 55.6747 19.5285V19.5417Z" fill="black"/>
<path fill-rule="evenodd" clip-rule="evenodd" d="M91.3686 18.752C90.5978 17.9418 89.6711 17.2987 88.6452 16.862C87.6193 16.4252 86.5158 16.2041 85.4022 16.2121C80.3628 16.2121 76.7856 20.5024 76.7856 25.6349C76.7856 30.7675 80.3628 35.0577 85.4022 35.0577C86.5155 35.0634 87.6183 34.8412 88.6439 34.4046C89.6694 33.9681 90.5964 33.3261 91.3686 32.5178V34.5445H94.75V16.7254H91.3556V18.752H91.3686ZM80.1669 25.6349C80.1669 22.2395 82.752 19.5417 85.7678 19.5417C88.7706 19.5417 91.3686 22.2395 91.3686 25.6349C91.3686 29.0303 88.7836 31.715 85.7678 31.715C82.765 31.715 80.1669 29.0303 80.1669 25.6349Z" fill="black"/>
</g>
<defs>
<clipPath id="clip0_5652_22940">
<rect width="94" height="48" fill="white" transform="translate(0.75)"/>
</clipPath>
</defs>
</svg>
