<svg width="163" height="48" viewBox="0 0 163 48" fill="none" xmlns="http://www.w3.org/2000/svg">
<g clip-path="url(#clip0_5652_22947)">
<rect width="162" height="48" transform="translate(0.75)" fill="#F9F9F9"/>
<path d="M64.0854 14.3628V18.1428H53.9399V22.2732H63.2802V26.0802H53.9399V34.0242H49.0618V14.3628H64.0854Z" fill="#0073FF"/>
<path d="M68.0712 14.3359H72.2851V17.6712H68.0712V14.3359ZM68.0712 19.4568H72.2851V34.0175H68.0712V19.4568Z" fill="#0073FF"/>
<path d="M75.3043 19.4837H79.8C81.5782 25.9454 81.8801 27.2661 82.3498 30.0421C82.9336 26.8146 83.0208 26.4575 83.8797 23.0279L84.7654 19.4702H89.147L84.45 34.004H79.9946L75.3043 19.4837Z" fill="#0073FF"/>
<path d="M105.318 30.3116C104.824 31.1052 104.236 31.8359 103.567 32.488C102.07 33.8414 100.119 34.5777 98.1049 34.5498C93.8038 34.5498 90.7843 31.767 90.7843 27.0302C90.7843 23.5197 92.5021 19.0053 98.2123 19.0053C99.1775 18.9757 100.138 19.1459 101.035 19.5052C101.932 19.8646 102.746 20.4054 103.426 21.094C105.318 23.1154 105.439 25.9723 105.479 27.6097H95.1458C95.1458 29.4222 96.1389 31.228 98.4605 31.228C100.782 31.228 101.594 29.6917 102.124 28.6675L105.318 30.3116ZM101.071 24.9212C101.036 24.1637 100.753 23.4389 100.266 22.8594C99.7015 22.332 98.956 22.0446 98.1854 22.0576C97.7797 22.055 97.378 22.1376 97.0059 22.3C96.6338 22.4625 96.2996 22.7012 96.0248 23.0009C95.5635 23.5466 95.2657 24.2125 95.166 24.9212H101.071Z" fill="#0073FF"/>
<path d="M109.706 15.2792H113.954V19.8206H116.752V22.4349H113.927V29.0112C113.927 29.9006 113.927 30.6754 115.034 30.6754L116.564 30.6216V33.9569C115.822 34.0913 115.07 34.1656 114.316 34.1792C112.84 34.1792 111.236 34.0984 110.29 32.7575C109.706 31.895 109.68 30.8641 109.68 29.4761V22.408H107.573V19.7869H109.68L109.706 15.2792Z" fill="#0073FF"/>
<path d="M124.428 20.9863C125.591 19.9637 127.07 19.3758 128.615 19.322V23.1222L127.206 23.3445C125.153 23.7017 124.522 24.0183 124.522 25.8511V34.0175H120.275V19.4567H124.435L124.428 20.9863Z" fill="#0073FF"/>
<path d="M131.702 23.6208C131.693 23.0011 131.827 22.3877 132.092 21.828C132.357 21.2684 132.747 20.7775 133.232 20.3933C134.574 19.3422 136.278 19.1198 137.976 19.1198C139.673 19.1198 144.061 19.5308 144.061 23.2906V31.7064C144.061 33.2696 144.142 33.4919 144.477 33.9906H140.317V32.643C139.21 33.4515 138.016 34.3746 135.889 34.3746C132.574 34.3746 131.151 31.9759 131.151 29.9275C131.151 27.5894 133.01 26.2553 134.198 25.7567C136.063 25.1559 137.972 24.7052 139.908 24.4091V23.6275C139.854 22.9537 139.801 21.842 138.251 21.842C136.365 21.842 136.11 23.0144 136.003 23.5467L131.702 23.6208ZM137.11 28.0005C136.392 28.2767 135.278 28.6743 135.278 29.8063C135.301 30.2174 135.484 30.603 135.788 30.8793C136.092 31.1556 136.492 31.3002 136.902 31.2819C137.426 31.2657 137.935 31.1023 138.371 30.8102C139.781 29.9208 139.841 28.5867 139.874 27.0774L137.11 28.0005Z" fill="#0073FF"/>
<path d="M153.214 20.7908C153.607 20.3081 154.102 19.9192 154.663 19.6521C155.497 19.3008 156.39 19.1132 157.294 19.0995C158.189 19.0776 159.076 19.2766 159.877 19.679C161.4 20.4876 161.789 21.7948 161.789 24.052V34.0174H157.549V25.8308C157.622 25.1018 157.556 24.3654 157.354 23.6612C157.186 23.3024 156.913 23.0037 156.571 22.805C156.229 22.6063 155.835 22.5171 155.442 22.5494C153.194 22.5494 153.194 24.3619 153.194 26.1677V34.0174H148.94V19.5106H153.241L153.214 20.7908Z" fill="#0073FF"/>
<path d="M23.0204 24.0385H27.5228C27.7007 24.0385 27.8714 23.9675 27.9972 23.8412C28.1231 23.7148 28.1938 23.5434 28.1938 23.3647C28.1934 23.2723 28.1752 23.1807 28.1401 23.0952L20.3968 1.93122C20.349 1.8067 20.2654 1.69924 20.1567 1.62247C20.048 1.5457 19.919 1.50308 19.7862 1.5H15.2704C15.0924 1.5 14.9218 1.57098 14.7959 1.69734C14.6701 1.8237 14.5994 1.9951 14.5994 2.1738C14.5995 2.25193 14.6131 2.32944 14.6396 2.40289L22.3896 23.6208C22.4408 23.746 22.5284 23.8528 22.6409 23.9273C22.7534 24.0018 22.8856 24.0406 23.0204 24.0385Z" fill="#0073FF"/>
<path d="M22.2218 46.5299H26.7242C26.9021 46.5299 27.0728 46.4589 27.1986 46.3325C27.3244 46.2062 27.3951 46.0348 27.3951 45.8561C27.3951 45.778 27.3814 45.7004 27.3549 45.627L11.3919 1.94466C11.3436 1.8191 11.2591 1.71092 11.149 1.63407C11.039 1.55721 10.9086 1.51519 10.7745 1.51344H6.27886C6.1009 1.51344 5.93024 1.58442 5.80441 1.71078C5.67857 1.83715 5.60787 2.00854 5.60787 2.18724C5.60796 2.26537 5.62158 2.34289 5.64812 2.41633L21.6112 46.1054C21.66 46.2287 21.744 46.3347 21.8526 46.4102C21.9613 46.4857 22.0897 46.5274 22.2218 46.5299Z" fill="#0073FF"/>
<path d="M13.3513 46.5299H17.847C18.016 46.5305 18.1791 46.4669 18.3035 46.352C18.4279 46.2371 18.5045 46.0792 18.518 45.91C18.5177 45.8209 18.5042 45.7323 18.4777 45.6472L10.7076 24.463C10.6598 24.3385 10.5762 24.231 10.4675 24.1543C10.3588 24.0775 10.2298 24.0349 10.097 24.0318H5.57447C5.40358 24.0421 5.24307 24.1176 5.12581 24.2429C5.00856 24.3681 4.94342 24.5337 4.94373 24.7056C4.94352 24.7794 4.95718 24.8525 4.98399 24.9212L12.7206 46.1122C12.7718 46.2374 12.8593 46.3442 12.9718 46.4187C13.0843 46.4932 13.2166 46.5319 13.3513 46.5299Z" fill="#0073FF"/>
<path d="M23.5639 2.4231L27.194 12.3347C27.2418 12.4592 27.3253 12.5667 27.434 12.6434C27.5427 12.7202 27.6717 12.7628 27.8046 12.7659H32.2868C32.4648 12.7659 32.6355 12.6949 32.7613 12.5685C32.8871 12.4422 32.9578 12.2708 32.9578 12.0921C32.9578 12.014 32.9441 11.9364 32.9176 11.863L29.2875 1.94469C29.2397 1.82017 29.1561 1.71271 29.0474 1.63594C28.9387 1.55917 28.8097 1.51655 28.6769 1.51347H24.1745C23.9965 1.51347 23.8259 1.58445 23.7 1.71081C23.5742 1.83717 23.5035 2.00856 23.5035 2.18727C23.5092 2.26891 23.5297 2.34883 23.5639 2.4231Z" fill="#0073FF"/>
<path d="M5.05107 46.5299H9.54676C9.72472 46.5299 9.89538 46.4589 10.0212 46.3326C10.147 46.2062 10.2178 46.0348 10.2178 45.8561C10.2177 45.778 10.204 45.7005 10.1775 45.627L6.52727 35.6885C6.47903 35.5629 6.39448 35.4548 6.28445 35.3779C6.17443 35.3011 6.04398 35.259 5.90997 35.2573H1.421C1.24304 35.2573 1.07238 35.3283 0.94654 35.4546C0.820704 35.581 0.75 35.7524 0.75 35.9311C0.750246 36.0114 0.763851 36.0911 0.790258 36.1669L4.42033 46.1054C4.47047 46.2319 4.55761 46.3401 4.67019 46.4159C4.78278 46.4917 4.91554 46.5314 5.05107 46.5299Z" fill="#0073FF"/>
</g>
<defs>
<clipPath id="clip0_5652_22947">
<rect width="162" height="48" fill="white" transform="translate(0.75)"/>
</clipPath>
</defs>
</svg>
