<svg width="136" height="48" viewBox="0 0 136 48" fill="none" xmlns="http://www.w3.org/2000/svg">
<g clip-path="url(#clip0_5652_22953)">
<rect width="135" height="48" transform="translate(0.75)" fill="#F9F9F9"/>
<path d="M0.75 2H29.8927V16.5713H15.3213L0.75 2ZM0.75 16.5713H15.3213L29.8927 31.1427H0.75V16.5713ZM0.75 31.1427H15.3213V45.714L0.75 31.1427Z" fill="black"/>
<path d="M46.3359 13.4954H58.1159V17.2387H50.7946V22.4407H58.1159V26.1014H50.7946V32.762H46.3359V13.4954ZM60.5379 19.4954H64.7493V22.2754C64.9693 21.32 65.4193 20.5867 66.0979 20.0734C66.7939 19.5407 67.5666 19.2754 68.4099 19.2754C68.8506 19.2754 69.2179 19.3127 69.5106 19.3854V23.294C69.0906 23.2434 68.6679 23.216 68.2446 23.2114C67.0886 23.2114 66.2179 23.5867 65.6299 24.3394C65.0439 25.0734 64.7493 26.174 64.7493 27.6427V32.762H60.5399V19.4954H60.5379ZM76.1586 33.12C74.8746 33.12 73.7546 32.8167 72.8006 32.2114C71.8646 31.606 71.1206 30.7467 70.6539 29.734C70.1586 28.6707 69.9093 27.4674 69.9093 26.1287C69.9093 24.8074 70.1679 23.614 70.6813 22.5507C71.1626 21.5234 71.9266 20.6547 72.8833 20.046C73.8546 19.4407 74.9653 19.1374 76.2139 19.1374C77.1493 19.1374 77.9853 19.34 78.7186 19.7434C79.4519 20.148 80.0026 20.6987 80.3699 21.3947V19.4954H84.5533V32.762H80.3699V30.89C80.0026 31.5507 79.4339 32.0914 78.6633 32.514C77.8926 32.9227 77.0313 33.1307 76.1586 33.12ZM77.3699 29.624C78.3786 29.624 79.1586 29.294 79.7093 28.6334C80.2599 27.9727 80.5353 27.1374 80.5353 26.1287C80.5353 25.138 80.2599 24.312 79.7093 23.6514C79.1586 22.9907 78.3786 22.6607 77.3699 22.6607C76.4146 22.6607 75.6453 22.9814 75.0579 23.624C74.4893 24.2667 74.2046 25.1007 74.2046 26.1287C74.2046 27.1567 74.4893 28 75.0579 28.6607C75.6453 29.3034 76.4159 29.624 77.3699 29.624ZM87.4986 19.4954H91.7099V21.422C92.0046 20.742 92.4806 20.1914 93.1406 19.7707C93.8206 19.35 94.6093 19.1374 95.5079 19.1374C97.5999 19.1374 98.9859 19.9534 99.6639 21.5874C100.037 20.8467 100.621 20.234 101.343 19.826C102.115 19.3614 103.002 19.1234 103.903 19.1374C107.041 19.1374 108.609 20.9347 108.609 24.532V32.762H104.371V25.3027C104.371 24.4047 104.205 23.744 103.875 23.3214C103.545 22.9 103.049 22.688 102.389 22.688C101.673 22.688 101.123 22.936 100.737 23.4314C100.352 23.9087 100.159 24.7427 100.159 25.936V32.762H95.9206V25.2754C95.9206 24.3767 95.7559 23.7247 95.4253 23.3214C95.1146 22.9 94.6273 22.688 93.9679 22.688C93.2333 22.688 92.6733 22.936 92.2879 23.4314C91.9026 23.9087 91.7099 24.7427 91.7099 25.936V32.762H87.4999V19.4954H87.4986ZM124.429 25.4407C124.429 26.0087 124.392 26.624 124.317 27.2847H114.521C114.558 28.1474 114.851 28.8067 115.401 29.2667C115.952 29.7247 116.697 29.9547 117.631 29.9547C118.934 29.9547 119.76 29.5594 120.108 28.7707H124.237C124.034 30.074 123.319 31.128 122.089 31.936C120.879 32.7247 119.392 33.12 117.631 33.12C115.356 33.12 113.567 32.5047 112.263 31.2754C110.979 30.0454 110.337 28.3307 110.337 26.1287C110.337 24.6974 110.63 23.4587 111.217 22.4127C111.785 21.368 112.659 20.5227 113.722 19.9907C114.805 19.4227 116.062 19.1374 117.495 19.1374C118.851 19.1374 120.053 19.4034 121.099 19.936C122.163 20.4687 122.98 21.2114 123.548 22.1654C124.136 23.1207 124.429 24.212 124.429 25.4407ZM120.271 24.67C120.253 23.7894 120.006 23.1187 119.528 22.6607C119.052 22.2027 118.363 21.9727 117.464 21.9727C116.565 21.9727 115.85 22.22 115.317 22.716C114.804 23.1934 114.538 23.844 114.519 24.67H120.271ZM126.286 19.4954H130.497V22.2754C130.717 21.32 131.167 20.5867 131.846 20.0734C132.505 19.5547 133.319 19.2734 134.158 19.2754C134.598 19.2754 134.966 19.3127 135.259 19.3854V23.294C134.839 23.2434 134.416 23.216 133.993 23.2114C132.837 23.2114 131.966 23.5867 131.378 24.3394C130.79 25.0734 130.497 26.174 130.497 27.6427V32.762H126.286V19.4954Z" fill="black"/>
</g>
<defs>
<clipPath id="clip0_5652_22953">
<rect width="135" height="48" fill="white" transform="translate(0.75)"/>
</clipPath>
</defs>
</svg>
