<svg width="161" height="48" viewBox="0 0 161 48" fill="none" xmlns="http://www.w3.org/2000/svg">
<g clip-path="url(#clip0_5652_22960)">
<rect width="160" height="48" transform="translate(0.75)" fill="#F9F9F9"/>
<path d="M39.6378 9.33984C35.6211 9.33984 34.2113 12.1329 34.2113 14.7397V16.3357H33.3601C32.7483 16.3357 32.2695 16.8145 32.2695 17.4263C32.2695 18.0381 32.7483 18.5169 33.3601 18.5169H34.2113V29.5294C34.2113 30.1678 34.7167 30.6998 35.3817 30.6998C36.0202 30.6998 36.5522 30.1944 36.5522 29.5294V18.5169H39.1324C39.7442 18.5169 40.223 18.0381 40.223 17.4263C40.223 16.8145 39.7442 16.3357 39.1324 16.3357H36.5522V14.7397C36.5522 13.2767 37.0842 11.5477 39.6644 11.5477C40.2762 11.5477 40.755 11.0688 40.755 10.457C40.7284 9.81864 40.2496 9.33984 39.6378 9.33984Z" fill="#4D4D4D"/>
<path d="M48.6856 15.9609C46.9566 15.9609 45.4935 16.6791 44.6689 17.8496V17.2377C44.6689 16.5993 44.1635 16.0673 43.4985 16.0673C42.8601 16.0673 42.3281 16.5727 42.3281 17.2377V29.527C42.3281 30.1654 42.8335 30.6974 43.4985 30.6974C44.1369 30.6974 44.6689 30.192 44.6689 29.527V22.744C44.6689 19.8978 46.1852 18.1953 48.6856 18.1953C49.2974 18.1953 49.8028 17.6899 49.8028 17.0781C49.8294 16.4663 49.324 15.9609 48.6856 15.9609Z" fill="#4D4D4D"/>
<path d="M62.9145 21.9977C62.9145 21.3327 62.8081 19.6037 61.7973 18.1673C60.7598 16.6777 59.1372 15.9062 56.9294 15.9062C52.833 15.9062 50.4922 18.6195 50.4922 23.3543C50.4922 28.2487 52.833 30.8555 57.222 30.8555C60.1746 30.8555 61.7972 29.3925 62.0899 29.0999C62.2761 28.9137 62.4889 28.6743 62.4889 28.2753C62.4889 27.6901 62.0101 27.2113 61.4248 27.2113C61.1322 27.2113 60.946 27.2911 60.7598 27.4241C59.9086 28.0625 58.9244 28.7009 57.2486 28.7009C54.6152 28.7009 52.9394 26.9719 52.8596 24.1523H61.5046C62.9145 24.1257 62.9145 22.8489 62.9145 21.9977ZM56.9294 18.0343C59.3234 18.0343 60.5736 19.3909 60.6268 22.0509H52.8862C53.099 19.4707 54.5354 18.0343 56.9294 18.0343Z" fill="#4D4D4D"/>
<path d="M70.7369 22.1846C69.0079 21.5994 67.5183 21.0674 67.5183 19.7906C67.5183 18.3808 69.0877 18.168 70.0187 18.168C71.6945 18.168 72.5191 18.7532 73.1841 19.3916C73.3969 19.6044 73.6629 19.7108 73.9555 19.7108C74.5407 19.7108 75.0195 19.232 75.0195 18.6468C75.0195 18.3276 74.8865 18.1148 74.7801 17.9552C73.7959 16.6518 72.1201 15.9336 70.0187 15.9336C67.0395 15.9336 65.2041 17.4232 65.2041 19.7906C65.2041 22.69 67.7577 23.5678 69.9921 24.3126C71.6945 24.8978 73.1575 25.3767 73.1575 26.6269C73.1575 28.3293 71.2689 28.5953 70.1251 28.5953C68.5823 28.5953 67.3853 28.1165 66.4011 27.1589C66.1085 26.8663 65.7893 26.8131 65.6031 26.8131C65.0179 26.8131 64.5391 27.2919 64.5391 27.8771C64.5391 28.1165 64.6189 28.3027 64.8051 28.5687C65.6829 29.6859 67.6779 30.8297 70.1251 30.8297C73.4767 30.8297 75.4717 29.2603 75.4717 26.6535C75.4717 23.8338 72.9713 22.956 70.7369 22.1846Z" fill="#4D4D4D"/>
<path d="M84.5384 15.9066C82.9424 15.9066 81.506 16.545 80.708 17.5558V9.68212C80.708 9.04372 80.2026 8.51172 79.5376 8.51172C78.8992 8.51172 78.3672 9.01712 78.3672 9.68212V29.5524C78.3672 30.1908 78.8726 30.7228 79.5376 30.7228C80.176 30.7228 80.708 30.2174 80.708 29.5524V22.0778C80.708 19.3912 82.0114 18.0346 84.5384 18.0346C86.9856 18.0346 87.9964 19.1518 87.9964 21.865V29.5524C87.9964 30.1908 88.5018 30.7228 89.1669 30.7228C89.8053 30.7228 90.3373 30.2174 90.3373 29.5524V21.466C90.2841 17.7686 88.3422 15.9066 84.5384 15.9066Z" fill="#4D4D4D"/>
<path d="M109.68 16.0938C109.174 16.0938 108.775 16.3864 108.589 16.8652L105.264 26.3348L102.551 16.8652C102.444 16.4928 102.045 16.0938 101.46 16.0938C100.875 16.0938 100.476 16.4928 100.37 16.8652L97.6563 26.3082L94.3313 16.8386C94.1451 16.3597 93.7461 16.0938 93.2407 16.0938C92.6023 16.0938 92.0703 16.5992 92.0703 17.2642C92.0703 17.4238 92.0969 17.5834 92.1767 17.743L96.6189 29.9524C96.8051 30.4312 97.2041 30.6972 97.7095 30.6972C98.2416 30.6972 98.6937 30.3514 98.8267 29.8726L101.434 20.9084L104.04 29.8726C104.173 30.3514 104.652 30.6972 105.158 30.6972C105.663 30.6972 106.062 30.4046 106.248 29.9258L110.69 17.7164C110.77 17.5568 110.797 17.3706 110.797 17.211C110.823 16.5991 110.318 16.0938 109.68 16.0938Z" fill="#4D4D4D"/>
<path d="M118.137 15.9062C113.908 15.9062 111.594 18.5663 111.594 23.3543C111.594 28.1955 113.908 30.8555 118.137 30.8555C122.367 30.8555 124.681 28.1955 124.681 23.3543C124.681 18.5397 122.34 15.9062 118.137 15.9062ZM118.137 28.7275C115.318 28.7275 113.935 26.9719 113.935 23.3809C113.935 19.8431 115.344 18.0609 118.137 18.0609C120.93 18.0609 122.34 19.8431 122.34 23.3809C122.34 26.9719 120.957 28.7275 118.137 28.7275Z" fill="#4D4D4D"/>
<path d="M133.67 15.9609C131.941 15.9609 130.478 16.6791 129.653 17.8496V17.2377C129.653 16.5993 129.148 16.0673 128.483 16.0673C127.845 16.0673 127.312 16.5727 127.312 17.2377V29.527C127.312 30.1654 127.818 30.6974 128.483 30.6974C129.121 30.6974 129.653 30.192 129.653 29.527V22.744C129.653 19.8978 131.17 18.1953 133.67 18.1953C134.282 18.1953 134.787 17.6899 134.787 17.0781C134.787 16.4663 134.282 15.9609 133.67 15.9609Z" fill="#4D4D4D"/>
<path d="M142.504 22.0285L147.318 18.1715C147.717 17.8523 147.77 17.4533 147.77 17.2405C147.77 16.6021 147.265 16.0701 146.6 16.0701C146.414 16.0701 146.095 16.0967 145.802 16.3627L138.966 21.9487V9.68603C138.966 9.04763 138.46 8.51562 137.795 8.51562C137.157 8.51562 136.625 9.02103 136.625 9.68603V29.5563C136.625 30.1947 137.13 30.7268 137.795 30.7268C138.434 30.7268 138.966 30.2214 138.966 29.5563V24.7683L140.588 23.4649L145.829 30.1947C146.121 30.5406 146.44 30.7268 146.813 30.7268C147.451 30.7268 147.983 30.2214 147.983 29.5563C147.983 29.3701 147.957 29.1041 147.744 28.8381L142.504 22.0285Z" fill="#4D4D4D"/>
<path d="M155.616 22.1885C153.887 21.6033 152.397 21.0713 152.397 19.7945C152.397 18.3847 153.967 18.1719 154.898 18.1719C156.573 18.1719 157.398 18.7571 158.063 19.3955C158.276 19.6083 158.542 19.7147 158.834 19.7147C159.42 19.7147 159.898 19.2359 159.898 18.6507C159.898 18.3049 159.712 18.0655 159.659 17.9591C158.675 16.6557 156.999 15.9375 154.898 15.9375C151.918 15.9375 150.083 17.4271 150.083 19.7945C150.083 22.6939 152.637 23.5717 154.871 24.3165C156.573 24.9018 158.036 25.3806 158.036 26.6308C158.036 28.3332 156.148 28.5992 155.004 28.5992C153.461 28.5992 152.264 28.1204 151.28 27.1628C150.987 26.8702 150.695 26.817 150.482 26.817C149.897 26.817 149.418 27.2958 149.418 27.881C149.418 28.1204 149.498 28.3066 149.684 28.5726C150.562 29.6898 152.557 30.8336 155.004 30.8336C158.356 30.8336 160.351 29.2642 160.351 26.6574C160.351 23.8377 157.85 22.9599 155.616 22.1885Z" fill="#4D4D4D"/>
<path d="M0.910156 28.8891C1.36236 31.8417 2.74557 34.5017 4.74058 36.4967L9.3956 31.8417C9.3956 27.1335 11.8428 22.5583 16.2052 20.0312L0.910156 28.8891Z" fill="#9B65C3"/>
<path d="M9.3956 31.8425C7.08139 31.8425 4.74058 31.2573 2.58597 30.0071C2.00076 29.6613 1.44216 29.2889 0.910156 28.8633C1.36236 31.8159 2.74557 34.4759 4.74058 36.4709L9.3956 31.8425Z" fill="#9B65C3"/>
<path d="M9.39721 31.8409L4.74219 36.4959C6.7638 38.5175 9.39721 39.9007 12.3498 40.3263L21.1811 25.0312C18.6807 29.3937 14.1054 31.8409 9.39721 31.8409Z" fill="#BE63C5"/>
<path d="M11.2326 38.6768C9.98242 36.5222 9.39721 34.1814 9.39721 31.8672L4.74219 36.5222C6.7638 38.5438 9.39721 39.927 12.3498 40.3526C11.9508 39.8206 11.5784 39.262 11.2326 38.6768Z" fill="#BF63C6"/>
<path d="M26.7391 13.9648L16.232 20.0563C11.8696 22.5833 6.68258 22.3971 2.61275 20.0563C1.44235 22.0513 0.777344 24.3921 0.777344 26.8659C0.777344 27.5575 0.830544 28.2225 0.936944 28.8875C1.46895 29.3131 2.02755 29.6855 2.61275 30.0313C4.76737 31.2815 7.10818 31.8667 9.42239 31.8667L27.0317 14.2574C26.9253 14.151 26.8455 14.0446 26.7391 13.9648Z" fill="#3278B1"/>
<path d="M2.58522 30.0337C4.73984 31.2839 7.08065 31.8691 9.39486 31.8691C9.39486 27.1608 11.8421 22.5856 16.2045 20.0586L0.882812 28.8898C1.44142 29.2888 2.00002 29.6878 2.58522 30.0337Z" fill="#3278B2"/>
<path d="M2.58541 20.0586C1.415 22.0536 0.75 24.3944 0.75 26.8682C0.75 27.5598 0.8032 28.2248 0.909601 28.8898L16.2313 20.0586C11.8423 22.559 6.65523 22.3994 2.58541 20.0586Z" fill="#45A4EC"/>
<path d="M27.0315 14.2335C26.9517 14.1537 26.8453 14.0473 26.7389 13.9675C26.6059 13.8611 26.4729 13.7547 26.3133 13.6749C25.8079 13.3823 25.2227 13.2227 24.6109 13.2227H14.3964C9.34238 13.2227 4.95335 15.9625 2.58594 20.0323C6.65576 22.3731 11.8428 22.5593 16.2052 20.0323C11.8428 22.5593 9.39558 27.1345 9.39558 31.8428C14.1038 31.8428 18.679 29.3956 21.206 25.0331L27.2709 14.5261C27.1911 14.4197 27.1113 14.3133 27.0315 14.2335Z" fill="#19BB7D"/>
<path d="M16.2318 20.0567L26.7389 13.9918C26.6059 13.8854 26.4729 13.779 26.3133 13.6992L2.58594 20.0567C6.65576 22.3975 11.8428 22.5571 16.2318 20.0567Z" fill="#08C7FB"/>
<path d="M24.6109 13.2227H14.3964C9.34238 13.2227 4.95335 15.9625 2.58594 20.0323L26.3133 13.6749C25.8079 13.4089 25.2493 13.2227 24.6109 13.2227Z" fill="#59F2F6"/>
<path d="M21.205 25.034L27.2698 14.527C27.19 14.4206 27.1102 14.3408 27.0038 14.2344L9.39453 31.8437C9.39453 34.1579 9.97974 36.4987 11.2299 38.6533C11.5757 39.2385 11.9481 39.7971 12.3737 40.3291C13.0388 40.4355 13.7038 40.4887 14.3954 40.4887C16.8692 40.4887 19.21 39.8237 21.205 38.6533C18.8642 34.5835 18.678 29.3965 21.205 25.034Z" fill="#DA3757"/>
<path d="M9.39453 31.8409C9.39453 34.1551 9.97974 36.4959 11.2299 38.6505C11.5757 39.2357 11.9481 39.7943 12.3737 40.3263L21.205 25.0312C18.678 29.3937 14.1028 31.8409 9.39453 31.8409Z" fill="#D33C4E"/>
<path d="M21.2063 25.0312L12.375 40.3529C13.04 40.4593 13.705 40.5125 14.3966 40.5125C16.8704 40.5125 19.2112 39.8475 21.2063 38.6771C18.8654 34.5807 18.6792 29.3937 21.2063 25.0312Z" fill="#EE5A24"/>
<path d="M27.5632 14.949C27.4834 14.7894 27.377 14.6564 27.2706 14.5234C27.1908 14.417 27.111 14.3372 27.0046 14.2308C26.9248 14.151 26.8184 14.0446 26.712 13.9648L16.2315 20.0563C11.8691 22.5833 9.42188 27.1585 9.42188 31.8667C14.1301 31.8667 18.7053 29.4195 21.2323 25.0571C18.7053 29.4195 18.8915 34.6066 21.2323 38.6764C25.3022 36.309 28.042 31.9199 28.042 26.8659V16.6515C28.0154 16.0131 27.8558 15.4278 27.5632 14.949Z" fill="#8BDF55"/>
<path d="M26.7386 13.9648L16.2315 20.0563C11.8691 22.5833 9.42188 27.1585 9.42188 31.8667L27.0312 14.2574C26.9248 14.151 26.845 14.0446 26.7386 13.9648Z" fill="#25C16F"/>
<path d="M9.39453 31.8437C14.1028 31.8437 18.678 29.3965 21.205 25.034L27.2698 14.527C27.19 14.4206 27.1102 14.3408 27.0038 14.2344L9.39453 31.8437Z" fill="#8BDF55"/>
<path d="M27.2698 14.5234L21.205 25.0305C18.678 29.3929 18.8642 34.58 21.205 38.6498L27.5624 14.9224C27.4826 14.7894 27.3762 14.6564 27.2698 14.5234Z" fill="#FFBB00"/>
<path d="M21.2031 38.6805C25.2729 36.3131 28.0128 31.924 28.0128 26.87V16.6555C28.0128 16.0437 27.8532 15.4585 27.5606 14.9531L21.2031 38.6805Z" fill="#FFA800"/>
</g>
<defs>
<clipPath id="clip0_5652_22960">
<rect width="160" height="48" fill="white" transform="translate(0.75)"/>
</clipPath>
</defs>
</svg>
