<svg width="170" height="48" viewBox="0 0 170 48" fill="none" xmlns="http://www.w3.org/2000/svg">
<g clip-path="url(#clip0_5652_22936)">
<rect width="169" height="48" transform="translate(0.75)" fill="#F9F9F9"/>
<path d="M167.551 20.3351C168.539 21.3831 169.036 22.804 169.036 24.6043V34.0751H165.371V25.678C165.371 24.6172 165.072 23.7813 164.473 23.1705C163.873 22.5597 163.064 22.2511 162.038 22.2511C160.827 22.2704 159.864 22.6883 159.157 23.4984C158.449 24.3085 158.092 25.3501 158.092 26.6168V34.0751H154.453V13.0311H158.092V21.7946C159.119 19.8078 160.922 18.7984 163.497 18.7598C165.206 18.7598 166.563 19.2806 167.551 20.3351ZM146.358 22.0196C145.147 22.0196 144.159 22.4375 143.407 23.267C142.655 24.1028 142.273 25.1765 142.273 26.501C142.273 27.8641 142.655 28.9571 143.407 29.793C144.166 30.6224 145.147 31.0403 146.365 31.0403C148.156 31.0403 149.501 30.4424 150.399 29.2529L152.668 31.156C151.999 32.1398 151.081 32.9242 150.011 33.4257C148.908 33.9529 147.633 34.2165 146.174 34.2165C144.701 34.2165 143.388 33.895 142.241 33.2521C141.113 32.6284 140.182 31.6833 139.57 30.5452C138.933 29.3815 138.614 28.0441 138.614 26.5332C138.614 25.0029 138.939 23.6463 139.583 22.4761C140.201 21.3252 141.138 20.3865 142.273 19.7564C143.42 19.1135 144.739 18.792 146.237 18.792C147.601 18.792 148.819 19.0299 149.889 19.5121C150.96 19.9943 151.833 20.6823 152.509 21.5695L150.297 23.6977C149.271 22.579 147.965 22.0196 146.358 22.0196ZM136.288 18.9013V34.0751H132.648V31.664C132.132 32.4741 131.412 33.1364 130.564 33.58C129.716 34.0236 128.741 34.2487 127.639 34.2487C126.217 34.2487 124.974 33.9208 123.897 33.2714C122.826 32.622 121.985 31.7026 121.392 30.5195C120.8 29.3365 120.5 27.9798 120.5 26.4496C120.5 24.9386 120.8 23.6013 121.399 22.4375C121.992 21.2738 122.833 20.3736 123.904 19.7307C124.974 19.0877 126.211 18.7663 127.613 18.7663C128.716 18.7663 129.697 18.9913 130.551 19.4349C131.406 19.8786 132.132 20.5344 132.648 21.3509V18.9141L136.288 18.9013ZM131.329 30.0309C132.094 29.285 132.534 28.2949 132.648 27.0668V25.9931C132.534 24.7586 132.1 23.7749 131.335 23.0291C130.571 22.2832 129.602 21.9103 128.423 21.9103C127.173 21.9103 126.154 22.3411 125.37 23.2027C124.586 24.0642 124.184 25.1765 124.165 26.5332C124.184 27.8963 124.586 29.0021 125.37 29.8637C126.154 30.7253 127.173 31.156 128.423 31.156C129.595 31.156 130.564 30.7831 131.329 30.0309ZM116.835 20.8559C118.04 22.2382 118.639 24.1735 118.639 26.6682C118.639 27.1569 118.626 27.5298 118.613 27.7741H107.555C107.797 28.8543 108.294 29.6965 109.053 30.3138C109.805 30.931 110.735 31.2332 111.838 31.2332C112.59 31.2332 113.342 31.0853 114.037 30.7896C114.732 30.5067 115.356 30.0759 115.873 29.5294L117.829 31.5997C117.071 32.442 116.14 33.0978 115.095 33.5286C114.024 33.9851 112.832 34.2101 111.526 34.2101C109.996 34.2101 108.645 33.8886 107.478 33.2457C106.338 32.6284 105.394 31.6833 104.776 30.5388C104.139 29.3751 103.826 28.0377 103.826 26.5268C103.826 25.0158 104.145 23.672 104.795 22.5018C105.42 21.3509 106.357 20.3994 107.498 19.7628C108.658 19.107 109.971 18.7855 111.443 18.7855C113.833 18.7855 115.631 19.4799 116.835 20.8559ZM115.312 25.3116C115.274 24.1928 114.91 23.3055 114.222 22.6433C113.534 21.981 112.616 21.6467 111.475 21.6467C110.41 21.6467 109.518 21.9746 108.798 22.624C108.078 23.2734 107.638 24.1671 107.466 25.3051H115.312V25.3116ZM99.8682 19.57C100.735 19.0492 101.748 18.7791 102.909 18.7598V22.3347C101.36 22.2382 100.123 22.6047 99.199 23.4277C98.2748 24.2507 97.8095 25.363 97.8095 26.7582V34.0751H94.1701V18.9013H97.8095V21.8203C98.3194 20.8366 99.0014 20.0843 99.8682 19.57ZM91.4421 33.1364C90.2502 33.8758 88.9946 34.2422 87.688 34.2422C86.4005 34.2422 85.3424 33.8565 84.5266 33.0913C83.7044 32.3262 83.2965 31.1946 83.2965 29.703V15.3521L86.9104 14.9149V19.5185H91.1935V22.2125H86.9104V29.0536C86.9104 29.7544 87.0379 30.2495 87.2992 30.5388C87.5605 30.8346 87.9493 30.976 88.472 30.976C89.0328 30.976 89.7403 30.7703 90.6008 30.3524L91.4421 33.1364ZM76.553 18.9013H80.1669V27.4076C80.1669 32.3712 76.7442 34.2165 73.2706 34.2165C69.7969 34.2165 66.3805 32.3712 66.3805 27.4076V18.9013H69.9944V27.5362C69.9944 29.4394 71.3967 30.9824 73.2769 30.9824C75.1572 30.9824 76.5594 29.4394 76.5594 27.5362L76.553 18.9013ZM58.8914 15.3007C60.4529 16.1558 61.7532 17.4225 62.6583 18.9591C63.5761 20.5087 64.0286 22.2318 64.0286 24.1221C64.0286 26.0124 63.5697 27.7355 62.6583 29.2979C61.7532 30.8474 60.4529 32.1269 58.8914 33.0013C57.2916 33.9079 55.526 34.3644 53.582 34.3644C51.638 34.3644 49.8725 33.9079 48.2791 33.0013C46.7175 32.1269 45.4173 30.8474 44.5122 29.2979C43.6007 27.7355 43.1418 26.0124 43.1418 24.1221C43.1418 22.2318 43.6007 20.5087 44.5122 18.9591C45.4173 17.416 46.7175 16.1558 48.2791 15.3007C49.8725 14.4134 51.6444 13.9698 53.582 13.9698C55.526 13.9634 57.2979 14.407 58.8914 15.3007ZM50.3123 18.2647C49.2989 18.8434 48.4575 19.6857 47.8775 20.7016C47.2784 21.7367 46.9788 22.8748 46.9788 24.1221C46.9788 25.3694 47.2848 26.5139 47.8903 27.5555C48.4767 28.5778 49.318 29.4265 50.325 30.0244C51.3448 30.6288 52.4475 30.931 53.6458 30.931C54.7994 30.9374 55.9339 30.6224 56.9219 30.0244C57.9226 29.4265 58.7448 28.5778 59.3184 27.5555C59.9112 26.5075 60.2107 25.3244 60.198 24.1221C60.198 22.8748 59.9048 21.7367 59.3184 20.7016C58.7511 19.6921 57.9226 18.8498 56.9219 18.2647C55.9276 17.6732 54.7994 17.3646 53.6458 17.371C52.473 17.3646 51.3257 17.6732 50.3123 18.2647ZM15.7156 5.45703C20.8719 5.45703 28.6607 7.058 32.281 10.7293C33.1988 11.6616 34.4034 13.4811 34.4034 16.1558C34.4034 20.9009 30.6238 28.1856 26.4553 32.4162C24.301 34.6023 20.8719 37.457 16.2573 37.457C11.7447 37.457 8.3029 34.358 7.30859 33.3421C3.48434 29.4715 0.75 23.5949 0.75 18.1233C0.75 14.6642 1.72518 11.6423 4.20457 9.12832C6.49912 6.80724 10.4572 5.45703 15.7156 5.45703ZM22.0957 24.3921C23.8357 22.6304 24.3074 20.4572 24.3074 19.2613C24.3074 18.3933 24.0843 17.1267 23.0135 16.0401C21.3755 14.3749 19.5526 13.9055 17.5767 13.9055C15.0718 13.9055 13.3891 14.7092 12.2674 15.8408C11.3878 16.7409 10.6293 18.104 10.6293 20.0522C10.6293 21.9939 11.6555 23.8713 12.7645 25.0029C13.7971 26.0445 15.416 26.8161 17.0413 26.8161C18.673 26.8161 20.3557 26.1538 22.0957 24.3921Z" fill="#5952FF"/>
</g>
<defs>
<clipPath id="clip0_5652_22936">
<rect width="169" height="48" fill="white" transform="translate(0.75)"/>
</clipPath>
</defs>
</svg>
