<svg width="144" height="48" viewBox="0 0 144 48" fill="none" xmlns="http://www.w3.org/2000/svg">
<g clip-path="url(#clip0_5652_22943)">
<rect width="143" height="48" transform="translate(0.75)" fill="#F9F9F9"/>
<path d="M53.9623 12.7734H46.0871C45.5482 12.7734 45.0899 13.165 45.0059 13.697L41.8208 33.8911C41.7574 34.2895 42.066 34.6488 42.4702 34.6488H46.2299C46.7688 34.6488 47.2271 34.2573 47.3112 33.7241L48.1702 28.2774C48.2531 27.7443 48.7126 27.3528 49.2503 27.3528H51.7434C56.9309 27.3528 59.9249 24.8425 60.7068 19.8679C61.0591 17.6916 60.7217 15.9816 59.7026 14.784C58.5834 13.469 56.5982 12.7734 53.9623 12.7734ZM54.8709 20.1489C54.4402 22.9747 52.2811 22.9747 50.1934 22.9747H49.0051L49.8388 17.6973C49.8883 17.3783 50.1646 17.1434 50.4871 17.1434H51.0317C52.4539 17.1434 53.7954 17.1434 54.4886 17.9541C54.902 18.4377 55.0286 19.1563 54.8709 20.1489Z" fill="#253B80"/>
<path d="M77.5029 20.0579H73.7317C73.4105 20.0579 73.1329 20.2928 73.0834 20.6118L72.9165 21.6666L72.6528 21.2843C71.8363 20.0994 70.0158 19.7032 68.1987 19.7032C64.0314 19.7032 60.472 22.8596 59.7788 27.2871C59.4184 29.4957 59.9308 31.6076 61.1837 33.0804C62.3329 34.4346 63.9773 34.9988 65.9337 34.9988C69.2915 34.9988 71.1535 32.8397 71.1535 32.8397L70.9854 33.8876C70.922 34.2883 71.2306 34.6476 71.6325 34.6476H75.0295C75.5695 34.6476 76.0256 34.2561 76.1108 33.7229L78.1489 20.8156C78.2134 20.4183 77.906 20.0579 77.5029 20.0579ZM72.2463 27.3977C71.8824 29.5522 70.1724 30.9985 67.9914 30.9985C66.8963 30.9985 66.0212 30.6472 65.4593 29.9817C64.9019 29.3207 64.69 28.3799 64.8674 27.332C65.2071 25.196 66.9459 23.7025 69.0934 23.7025C70.1643 23.7025 71.0349 24.0583 71.6083 24.7296C72.1829 25.4079 72.4109 26.3544 72.2463 27.3977Z" fill="#253B80"/>
<path d="M97.5876 20.0579H93.798C93.4364 20.0579 93.0967 20.2375 92.8917 20.538L87.665 28.2371L85.4495 20.8386C85.3102 20.3757 84.883 20.0579 84.3993 20.0579H80.6753C80.2228 20.0579 79.9084 20.5 80.0523 20.9261L84.2266 33.1759L80.3022 38.7159C79.9936 39.1523 80.3045 39.7522 80.8377 39.7522H84.6227C84.982 39.7522 85.3182 39.5772 85.522 39.2824L98.1265 21.0885C98.4282 20.6532 98.1185 20.0579 97.5876 20.0579Z" fill="#253B80"/>
<path d="M110.134 12.7708H102.258C101.72 12.7708 101.262 13.1623 101.178 13.6943L97.9926 33.8884C97.9293 34.2868 98.2379 34.6461 98.6398 34.6461H102.682C103.057 34.6461 103.378 34.372 103.437 33.9989L104.341 28.2748C104.424 27.7416 104.883 27.3501 105.421 27.3501H107.913C113.102 27.3501 116.094 24.8398 116.877 19.8652C117.231 17.6889 116.891 15.9789 115.872 14.7813C114.754 13.4663 112.77 12.7708 110.134 12.7708ZM111.043 20.1462C110.613 22.972 108.454 22.972 106.365 22.972H105.178L106.013 17.6946C106.062 17.3757 106.337 17.1408 106.66 17.1408H107.205C108.626 17.1408 109.968 17.1408 110.662 17.9514C111.075 18.4351 111.201 19.1536 111.043 20.1462Z" fill="#179BD7"/>
<path d="M133.674 20.0552H129.905C129.581 20.0552 129.306 20.2901 129.257 20.6091L129.091 21.6639L128.826 21.2816C128.009 20.0967 126.19 19.7006 124.373 19.7006C120.205 19.7006 116.647 22.8569 115.954 27.2844C115.595 29.493 116.105 31.6049 117.358 33.0777C118.509 34.4319 120.151 34.9961 122.108 34.9961C125.466 34.9961 127.328 32.837 127.328 32.837L127.159 33.8849C127.096 34.2856 127.405 34.6449 127.809 34.6449H131.205C131.742 34.6449 132.201 34.2534 132.285 33.7203L134.324 20.8129C134.386 20.4157 134.078 20.0552 133.674 20.0552ZM128.417 27.395C128.055 29.5495 126.343 30.9958 124.162 30.9958C123.069 30.9958 122.192 30.6446 121.63 29.979C121.073 29.318 120.863 28.3772 121.038 27.3293C121.38 25.1933 123.116 23.6998 125.264 23.6998C126.335 23.6998 127.206 24.0556 127.779 24.7269C128.356 25.4052 128.584 26.3517 128.417 27.395Z" fill="#179BD7"/>
<path d="M138.119 13.3246L134.887 33.8883C134.824 34.2867 135.132 34.646 135.534 34.646H138.784C139.324 34.646 139.782 34.2545 139.865 33.7214L143.053 13.5284C143.116 13.13 142.807 12.7695 142.405 12.7695H138.767C138.445 12.7707 138.169 13.0056 138.119 13.3246Z" fill="#179BD7"/>
<path d="M9.11781 38.5718L9.72005 34.7465L8.37853 34.7154H1.97266L6.42441 6.48829C6.43823 6.40308 6.48314 6.32363 6.54878 6.2672C6.61441 6.21078 6.69847 6.17969 6.78599 6.17969H17.5872C21.173 6.17969 23.6476 6.92587 24.9396 8.39866C25.5453 9.08957 25.9311 9.81157 26.1176 10.6061C26.3134 11.4398 26.3168 12.4359 26.1257 13.6507L26.1119 13.7394V14.5178L26.7176 14.861C27.2277 15.1316 27.633 15.4413 27.9439 15.796C28.4621 16.3867 28.7972 17.1375 28.9388 18.0276C29.0851 18.9431 29.0367 20.0324 28.7972 21.2657C28.5208 22.6844 28.074 23.9199 27.4707 24.931C26.9156 25.8625 26.2086 26.6352 25.3691 27.234C24.5677 27.8028 23.6154 28.2347 22.5387 28.511C21.4954 28.7828 20.3059 28.9198 19.0013 28.9198H18.1607C17.5596 28.9198 16.9757 29.1363 16.5174 29.5244C16.058 29.9205 15.754 30.4617 15.6607 31.0536L15.5974 31.3979L14.5334 38.14L14.485 38.3876C14.4724 38.4659 14.4505 38.505 14.4182 38.5315C14.3894 38.5557 14.348 38.5718 14.3077 38.5718H9.11781Z" fill="#253B80"/>
<path d="M27.2892 13.8281C27.2569 14.0342 27.2201 14.245 27.1786 14.4615C25.7542 21.7747 20.881 24.3012 14.657 24.3012H11.4881C10.7269 24.3012 10.0855 24.8539 9.96692 25.6047L8.34443 35.8946L7.88498 38.8114C7.80783 39.3042 8.18783 39.7487 8.68528 39.7487H14.3058C14.9714 39.7487 15.5368 39.2651 15.6416 38.6087L15.6969 38.3232L16.7551 31.6075L16.823 31.239C16.9267 30.5804 17.4932 30.0967 18.1588 30.0967H18.9994C24.4449 30.0967 28.7078 27.8858 29.9538 21.488C30.4743 18.8153 30.2048 16.5837 28.8276 15.0142C28.4107 14.5409 27.8937 14.1482 27.2892 13.8281Z" fill="#179BD7"/>
<path d="M25.8009 13.2339C25.5833 13.1706 25.3587 13.113 25.1284 13.0612C24.897 13.0105 24.6598 12.9656 24.4157 12.9265C23.5612 12.7883 22.625 12.7227 21.6221 12.7227H13.1561C12.9477 12.7227 12.7497 12.7699 12.5723 12.8551C12.182 13.0428 11.8918 13.4124 11.8215 13.865L10.0206 25.2719L9.96875 25.6047C10.0874 24.8539 10.7287 24.3011 11.4899 24.3011H14.6589C20.8828 24.3011 25.756 21.7736 27.1804 14.4614C27.223 14.245 27.2587 14.0342 27.291 13.8281C26.9306 13.637 26.5402 13.4734 26.1199 13.3341C26.0163 13.2996 25.9092 13.2662 25.8009 13.2339Z" fill="#222D65"/>
<path d="M11.8207 13.8655C11.8909 13.413 12.1811 13.0433 12.5714 12.8568C12.7499 12.7716 12.9468 12.7244 13.1553 12.7244H21.6212C22.6242 12.7244 23.5603 12.79 24.4148 12.9282C24.6589 12.9673 24.8961 13.0122 25.1276 13.0629C25.3579 13.1147 25.5824 13.1723 25.8 13.2356C25.9083 13.2679 26.0154 13.3013 26.1202 13.3347C26.5405 13.474 26.9308 13.6387 27.2913 13.8287C27.715 11.1261 27.2878 9.28594 25.8265 7.6197C24.2156 5.78533 21.308 5 17.5874 5H6.78623C6.02623 5 5.37793 5.55273 5.26047 6.30467L0.761502 34.8219C0.672836 35.3862 1.10811 35.8952 1.67696 35.8952H8.34538L10.0197 25.2724L11.8207 13.8655Z" fill="#253B80"/>
</g>
<defs>
<clipPath id="clip0_5652_22943">
<rect width="143" height="48" fill="white" transform="translate(0.75)"/>
</clipPath>
</defs>
</svg>
