<svg width="129" height="48" viewBox="0 0 129 48" fill="none" xmlns="http://www.w3.org/2000/svg">
<g clip-path="url(#clip0_5652_22949)">
<rect width="128" height="48" transform="translate(0.75)" fill="#F9F9F9"/>
<path fill-rule="evenodd" clip-rule="evenodd" d="M100.342 31.6199C103.641 31.6199 106.324 28.9899 106.324 25.7573C106.324 22.5245 103.641 19.8946 100.342 19.8946C97.0433 19.8946 94.3595 22.5245 94.3595 25.7573C94.3595 28.9899 97.0433 31.6199 100.342 31.6199ZM106.324 11.1875H106.486H109.158V34.4171H106.324V32.0977C104.688 33.5834 102.579 34.3973 100.342 34.3973C95.4807 34.3973 91.5257 30.5213 91.5257 25.7573C91.5257 20.9929 95.4807 17.1171 100.342 17.1171C102.579 17.1171 104.688 17.9308 106.324 19.4167V11.1875ZM41.5664 31.5175C44.865 31.5175 47.5486 28.8876 47.5486 25.6549C47.5486 22.4223 44.865 19.7924 41.5664 19.7924C38.2677 19.7924 35.5841 22.4223 35.5841 25.6549C35.5841 28.8876 38.2677 31.5175 41.5664 31.5175ZM35.5841 19.3146C37.2197 17.8288 39.3293 17.0149 41.5664 17.0149C46.4276 17.0149 50.3827 20.8908 50.3827 25.6549C50.3827 30.419 46.4276 34.2949 41.5664 34.2949C39.3293 34.2949 37.2197 33.4812 35.5841 31.9953V40.2245H32.75V16.9949H35.5841V19.3146ZM55.7902 24.3059C56.428 21.6805 58.8047 19.7953 61.5156 19.7953C64.1912 19.7953 66.4324 21.6402 67.0297 24.3059H55.7902ZM61.5156 16.9949C56.7272 16.9949 52.8317 20.9029 52.8317 25.706C52.8317 30.5093 56.7272 34.4171 61.5156 34.4171C64.1971 34.4171 66.6581 33.4101 68.2688 31.6542L69.1056 30.7415L69.2134 30.6238L69.0961 30.5151L67.2768 28.8365L67.1595 28.728L67.051 28.8458L66.2143 29.7586C65.147 30.9221 63.3906 31.6169 61.5156 31.6169C58.8047 31.6169 56.4282 29.7317 55.7902 27.1061H69.9743V25.706C69.9743 20.8213 66.2587 16.9949 61.5156 16.9949ZM125.916 25.7061C125.916 28.9653 123.232 31.6168 119.933 31.6168C116.635 31.6168 113.951 28.9653 113.951 25.7061C113.951 22.4468 116.635 19.7952 119.933 19.7952C123.232 19.7952 125.916 22.4468 125.916 25.7061ZM119.933 16.9949C115.072 16.9949 111.117 20.9027 111.117 25.7061C111.117 30.5093 115.072 34.4171 119.933 34.4171C124.795 34.4171 128.75 30.5093 128.75 25.7061C128.75 20.9027 124.795 16.9949 119.933 16.9949ZM80.5047 16.9949C78.5355 16.9949 76.6593 17.7448 75.1826 19.1145V16.9949H72.4235V34.4171H75.1826V25.5263C75.1826 22.3543 77.5701 19.7735 80.5047 19.7735C83.4398 19.7735 85.8279 22.3543 85.8279 25.5263V34.4171H88.5864V25.5263C88.5864 20.8221 84.961 16.9949 80.5047 16.9949Z" fill="#1A2022"/>
<path fill-rule="evenodd" clip-rule="evenodd" d="M0.75 27.7792H14.0833V40.8163L27.4167 27.7792V14.7422H14.0833L0.75 27.7792Z" fill="#FF4876"/>
</g>
<defs>
<clipPath id="clip0_5652_22949">
<rect width="128" height="48" fill="white" transform="translate(0.75)"/>
</clipPath>
</defs>
</svg>
