<svg width="163" height="48" viewBox="0 0 163 48" fill="none" xmlns="http://www.w3.org/2000/svg">
<g clip-path="url(#clip0_5652_22956)">
<rect width="162" height="48" transform="translate(0.75)" fill="#F9F9F9"/>
<path fill-rule="evenodd" clip-rule="evenodd" d="M27.2692 11.0006H3.23031C1.86021 11.0006 0.75 12.1111 0.75 13.4809V37.5198C0.75 38.8898 1.86047 40 3.23031 40H27.2692C28.6392 40 29.7495 38.8895 29.7495 37.5198V13.4809C29.7495 12.1108 28.639 11.0006 27.2692 11.0006ZM15.9877 26.9777C13.8199 26.9777 12.8347 24.8828 12.8347 22.9409C12.8347 19.8832 14.4915 18.7946 16.0412 18.7946C17.9431 18.7946 19.221 20.4486 19.221 22.9123C19.221 25.7226 17.5954 26.9777 15.9877 26.9777ZM23.3056 22.8584C23.3056 18.2757 20.692 15.1971 16.8049 15.1971C14.5435 15.1971 13.2344 16.2228 12.6029 16.9306C12.5271 16.3203 12.1289 15.5285 10.5732 15.5285H7.19434V19.0975H8.57917C8.81393 19.0975 8.88971 19.1724 8.88971 19.4094V35.7066H12.9164V29.5899C12.9164 29.425 12.9134 29.2705 12.909 29.1325C13.5375 29.7143 14.7396 30.5181 16.6162 30.5181C20.5523 30.5181 23.3056 27.369 23.3056 22.8584Z" fill="#192435"/>
<path fill-rule="evenodd" clip-rule="evenodd" d="M40.3901 18.8096C41.1034 18.0109 42.5821 16.8533 45.1367 16.8533C49.5273 16.8533 52.4796 20.3276 52.4796 25.4993C52.4796 30.5898 49.3695 34.1437 44.9234 34.1437C42.8036 34.1437 41.4458 33.2366 40.7359 32.58C40.7409 32.7357 40.7443 32.91 40.7443 33.0961V39.9991H36.1958V21.6071C36.1958 21.3396 36.1102 21.2551 35.8451 21.2551H34.2808V17.2273H38.0974C39.8547 17.2273 40.3045 18.1209 40.3901 18.8096ZM44.2739 20.9132C42.5234 20.9132 40.652 22.1418 40.652 25.5924C40.652 27.7839 41.7647 30.1481 44.2135 30.1481C46.0295 30.1481 47.8657 28.7317 47.8657 25.5603C47.8657 22.7798 46.4222 20.9132 44.2739 20.9132Z" fill="#192435"/>
<path d="M58.5877 29.4226V19.6765C58.5877 18.0299 57.8006 17.2278 56.1877 17.2278H52.1226V21.2554H53.6886C53.9521 21.2554 54.0376 21.3418 54.0376 21.6075V31.3196C54.0376 32.9916 54.7996 33.7684 56.4327 33.7684H60.5028V29.7763H58.9368C58.6851 29.7763 58.5877 29.6747 58.5877 29.4226Z" fill="#192435"/>
<path fill-rule="evenodd" clip-rule="evenodd" d="M65.7214 18.8096C66.4381 18.0109 67.9134 16.8533 70.4713 16.8533C74.8603 16.8533 77.8109 20.3276 77.8109 25.4993C77.8109 30.5898 74.7042 34.1437 70.2564 34.1437C68.1384 34.1437 66.7755 33.2366 66.0689 32.58C66.0739 32.7357 66.0789 32.91 66.0789 33.0961V39.9991H61.5271V21.6071C61.5271 21.3396 61.4416 21.2551 61.178 21.2551H59.6138V17.2273H63.4321C65.1894 17.2273 65.6375 18.1209 65.7214 18.8096ZM65.9832 25.5924C65.9832 27.7839 67.1011 30.1481 69.5431 30.1481C71.3642 30.1481 73.1987 28.7317 73.1987 25.5603C73.1987 22.7798 71.7552 20.9132 69.6069 20.9132C67.8547 20.9132 65.9832 22.1418 65.9832 25.5924Z" fill="#192435"/>
<path fill-rule="evenodd" clip-rule="evenodd" d="M78.043 25.5002C78.043 20.4097 81.4703 16.8541 86.3711 16.8541C90.7417 16.8541 93.6789 20.0154 93.6789 24.72C93.6789 25.1972 93.5899 26.1737 93.5814 26.2143L93.5563 26.5155H82.7693C83.1637 28.7156 84.832 30.1184 87.1113 30.1184C89.405 30.1184 91.1601 28.5605 91.2956 28.4402C91.3005 28.4359 91.3032 28.4335 91.3039 28.4329L91.5976 28.152L93.5798 31.4673L93.3968 31.65C93.2888 31.7554 90.8405 34.1445 86.8361 34.1445C81.7404 34.1445 78.043 30.5077 78.043 25.5002ZM86.3711 20.5687C84.6659 20.5687 83.4323 21.4894 82.9388 23.1123H88.981C88.7947 21.6197 87.7407 20.5687 86.3711 20.5687Z" fill="#192435"/>
<path fill-rule="evenodd" clip-rule="evenodd" d="M110.224 13.4488V29.4225C110.224 29.6747 110.321 29.7762 110.573 29.7762H112.105V33.7684H108.164C106.463 33.7684 106.004 32.8647 105.912 32.1505C105.205 32.9696 103.759 34.144 101.25 34.144C96.8589 34.144 93.9083 30.6714 93.9083 25.4997C93.9083 20.4092 96.9881 16.8537 101.402 16.8537C103.66 16.8537 104.971 17.6576 105.642 18.2685V15.3814C105.642 15.114 105.556 15.0294 105.293 15.0294H103.727V11H107.792C109.427 11 110.224 11.8022 110.224 13.4488ZM98.549 25.4997C98.549 28.3225 99.9488 30.1485 102.112 30.1485C103.863 30.1485 105.736 28.9216 105.736 25.4693C105.736 23.1999 104.633 20.9136 102.174 20.9136C100.006 20.9136 98.549 22.7548 98.549 25.4997Z" fill="#192435"/>
<path d="M122.227 17.0092C120.334 17.0092 118.592 18.1109 117.558 19.8658V19.4885C117.558 17.9891 116.737 17.2275 115.126 17.2275H111.215V21.2552H112.78C113.043 21.2552 113.13 21.3399 113.13 21.6072V33.7682H117.679V27.1495C117.679 26.278 117.79 25.4387 118.004 24.6618C118.689 22.3789 120.509 21.5666 121.981 21.5666C122.502 21.5666 122.882 21.6225 122.888 21.6241L123.268 21.6817V17.1226L122.991 17.0752C122.977 17.0718 122.591 17.0092 122.227 17.0092Z" fill="#192435"/>
<path d="M129.742 29.4226V19.6766C129.742 18.0299 128.959 17.2278 127.345 17.2278H123.668V21.2555H124.843C125.109 21.2555 125.192 21.3418 125.192 21.6075V31.3196C125.192 32.9916 125.956 33.7684 127.593 33.7684H131.659V29.7763H130.091C129.84 29.7763 129.742 29.6747 129.742 29.4226Z" fill="#192435"/>
<path d="M146.915 17.2278H144.488C143.07 17.2278 142.309 17.7236 141.859 18.9404L138.894 27.292C138.791 27.6017 138.695 27.9486 138.613 28.282C138.528 27.9486 138.425 27.5966 138.313 27.2869L135.347 18.9387C134.892 17.7084 134.157 17.2278 132.721 17.2278H130.139V21.2555H130.808C131.165 21.2555 131.279 21.3774 131.363 21.6008L135.953 33.7685H141.069L145.659 21.6008C145.743 21.3774 145.861 21.2555 146.216 21.2555H146.915V17.2278Z" fill="#192435"/>
<path fill-rule="evenodd" clip-rule="evenodd" d="M146.422 25.5002C146.422 20.4097 149.849 16.8541 154.748 16.8541C159.121 16.8541 162.06 20.0154 162.06 24.72C162.06 25.1972 161.968 26.1737 161.963 26.2143L161.938 26.5155H151.147C151.542 28.7156 153.21 30.1184 155.491 30.1184C157.857 30.1184 159.665 28.4481 159.681 28.4329L159.982 28.152L161.96 31.4673L161.775 31.65C161.672 31.7515 159.222 34.1445 155.213 34.1445C150.117 34.1445 146.422 30.5077 146.422 25.5002ZM154.748 20.5687C153.044 20.5687 151.815 21.4894 151.317 23.1123H157.359C157.173 21.6197 156.121 20.5687 154.748 20.5687Z" fill="#192435"/>
<path d="M58.2771 11.0011H54.2222V15.308H58.2771V11.0011Z" fill="#192435"/>
<path d="M129.434 11.0011H125.377V15.308H129.434V11.0011Z" fill="#192435"/>
</g>
<defs>
<clipPath id="clip0_5652_22956">
<rect width="162" height="48" fill="white" transform="translate(0.75)"/>
</clipPath>
</defs>
</svg>
