<svg width="121" height="63" viewBox="0 0 121 63" fill="none" xmlns="http://www.w3.org/2000/svg">
<path d="M118.199 3V39.9105V63H2.05749V57.615L28.3863 53.5065L45.6012 36.0451L101.297 25.7737L102.309 16.5294L118.199 3Z" fill="url(#paint0_linear_12038_7026)"/>
<path d="M118.291 1.77058C118.97 1.8213 119.479 2.41285 119.429 3.09184L118.602 14.1566C118.551 14.8356 117.96 15.3449 117.281 15.2942C116.602 15.2435 116.093 14.6519 116.143 13.973L116.878 4.13758L107.043 3.40288C106.364 3.35216 105.854 2.76061 105.905 2.08162C105.956 1.40263 106.547 0.893318 107.226 0.944039L118.291 1.77058ZM102.309 16.6809L101.084 16.5474L101.136 16.0639L101.505 15.7466L102.309 16.6809ZM101.297 25.9777L102.522 26.1112L102.423 27.0227L101.522 27.1899L101.297 25.9777ZM45.6012 36.3075L44.7209 35.4444L44.9935 35.1663L45.3764 35.0953L45.6012 36.3075ZM28.3863 53.8681L29.2666 54.7311L28.9808 55.0227L28.5774 55.086L28.3863 53.8681ZM2.24862 59.2179C1.57597 59.3235 0.945107 58.8638 0.839544 58.1911C0.733982 57.5185 1.1937 56.8876 1.86635 56.7821L2.24862 59.2179ZM118.199 3L119.004 3.93427L103.114 17.6152L102.309 16.6809L101.505 15.7466L117.395 2.06573L118.199 3ZM102.309 16.6809L103.535 16.8144L102.522 26.1112L101.297 25.9777L100.071 25.8442L101.084 16.5474L102.309 16.6809ZM101.297 25.9777L101.522 27.1899L45.8261 37.5196L45.6012 36.3075L45.3764 35.0953L101.072 24.7655L101.297 25.9777ZM45.6012 36.3075L46.4816 37.1705L29.2666 54.7311L28.3863 53.8681L27.5059 53.005L44.7209 35.4444L45.6012 36.3075ZM28.3863 53.8681L28.5774 55.086L2.24862 59.2179L2.05748 58L1.86635 56.7821L28.1951 52.6501L28.3863 53.8681Z" fill="#00AEAE"/>
<defs>
<linearGradient id="paint0_linear_12038_7026" x1="60.1287" y1="-13.4343" x2="60.1287" y2="63" gradientUnits="userSpaceOnUse">
<stop stop-color="#00AEAE" stop-opacity="0.3"/>
<stop offset="1" stop-color="#00AEAE" stop-opacity="0.05"/>
</linearGradient>
</defs>
</svg>
