<svg width="121" height="66" viewBox="0 0 121 66" fill="none" xmlns="http://www.w3.org/2000/svg">
<path d="M119.254 6.07422V42.9391V66.0001H1.25391V52.4148L28.0039 33.7728L48.5809 38.9021L78.4175 17.3588L119.254 6.07422Z" fill="url(#paint0_linear_12038_2847)"/>
<path d="M120.418 5.35848C120.91 5.65173 121.071 6.2886 120.778 6.78097L115.999 14.8047C115.706 15.297 115.069 15.4585 114.577 15.1652C114.085 14.872 113.923 14.2351 114.216 13.7427L118.464 6.61055L111.332 2.36278C110.84 2.06953 110.678 1.43266 110.972 0.940286C111.265 0.447913 111.902 0.286489 112.394 0.579737L120.418 5.35848ZM99.3961 11.4436L99.1023 10.4484L99.1216 10.4427L99.1412 10.4378L99.3961 11.4436ZM78.5844 17.5872L77.9839 16.7409L78.1249 16.6409L78.2906 16.592L78.5844 17.5872ZM48.2793 39.0883L48.8797 39.9346L48.4918 40.2098L48.03 40.0955L48.2793 39.0883ZM27.5956 33.9695L26.9901 33.1268L27.3795 32.847L27.8449 32.9622L27.5956 33.9695ZM2.53242 53.2569C2.06703 53.5913 1.41866 53.4852 1.08424 53.0198C0.74982 52.5544 0.855996 51.906 1.32139 51.5716L2.53242 53.2569ZM119.887 6.25L120.142 7.25585L99.6511 12.4495L99.3961 11.4436L99.1412 10.4378L119.632 5.24415L119.887 6.25ZM99.3961 11.4436L99.6899 12.4388L78.8781 18.5824L78.5844 17.5872L78.2906 16.592L99.1023 10.4484L99.3961 11.4436ZM78.5844 17.5872L79.1848 18.4335L48.8797 39.9346L48.2793 39.0883L47.6789 38.242L77.9839 16.7409L78.5844 17.5872ZM48.2793 39.0883L48.03 40.0955L27.3463 34.9767L27.5956 33.9695L27.8449 32.9622L48.5286 38.081L48.2793 39.0883ZM27.5956 33.9695L28.2011 34.8121L2.53242 53.2569L1.92691 52.4143L1.32139 51.5716L26.9901 33.1268L27.5956 33.9695Z" fill="#009E00"/>
<defs>
<linearGradient id="paint0_linear_12038_2847" x1="60.2542" y1="-19.0418" x2="60.2542" y2="66.0001" gradientUnits="userSpaceOnUse">
<stop stop-color="#009E00" stop-opacity="0.3"/>
<stop offset="1" stop-color="#009E00" stop-opacity="0.05"/>
</linearGradient>
</defs>
</svg>
