<svg width="122" height="60" viewBox="0 0 122 60" fill="none" xmlns="http://www.w3.org/2000/svg">
<path d="M119.25 6.20703V36.9398V60.0008H1.25V39.0581L28 27.7735L58.4992 39.0581L70.9203 27.7735L96.7975 24.8277L105.078 17.5863L119.25 6.20703Z" fill="url(#paint0_linear_12038_21188)"/>
<path d="M120.705 4.17025C121.275 4.2252 121.693 4.73219 121.638 5.30264L120.743 14.5985C120.688 15.169 120.181 15.5869 119.61 15.5319C119.04 15.477 118.622 14.97 118.677 14.3995L119.473 6.13649L111.21 5.3404C110.64 5.28545 110.222 4.77846 110.277 4.20802C110.332 3.63757 110.839 3.21969 111.409 3.27465L120.705 4.17025ZM96.7984 24.826L97.4584 25.6267L97.2212 25.8222L96.9158 25.857L96.7984 24.826ZM70.9213 27.7703L70.2176 27.0077L70.4669 26.7776L70.8039 26.7393L70.9213 27.7703ZM58.5002 39.2317L59.2039 39.9943L58.7338 40.428L58.1352 40.203L58.5002 39.2317ZM28.0026 27.7703L27.5851 26.8203L27.972 26.6502L28.3677 26.7989L28.0026 27.7703ZM2.34531 40.1816C1.82068 40.4122 1.20843 40.1739 0.977821 39.6492C0.747208 39.1246 0.985565 38.5124 1.51021 38.2817L2.34531 40.1816ZM121.265 6.00385L97.4584 25.6267L96.1385 24.0252L119.945 4.4024L121.265 6.00385ZM96.9158 25.857L71.0386 28.8013L70.8039 26.7393L96.6811 23.795L96.9158 25.857ZM71.6249 28.5329L59.2039 39.9943L57.7965 38.4691L70.2176 27.0077L71.6249 28.5329ZM58.1352 40.203L27.6376 28.7416L28.3677 26.7989L58.8652 38.2604L58.1352 40.203ZM28.4202 28.7202L2.34531 40.1816L1.51021 38.2817L27.5851 26.8203L28.4202 28.7202Z" fill="#005DDC"/>
<defs>
<linearGradient id="paint0_linear_12038_21188" x1="60.2503" y1="-16.3389" x2="60.2503" y2="60.0009" gradientUnits="userSpaceOnUse">
<stop stop-color="#009E00" stop-opacity="0.3"/>
<stop offset="1" stop-color="#009E00" stop-opacity="0.05"/>
</linearGradient>
</defs>
</svg>
