<svg width="206" height="52" viewBox="0 0 206 52" fill="none" xmlns="http://www.w3.org/2000/svg">
<path d="M49.5 0V4.89753C49.2795 5.07781 49.059 5.26811 48.8385 5.4584C43.0756 10.5763 39.7682 17.9276 39.7682 25.6294C39.7682 31.4384 41.5822 36.9669 45.0199 41.614C45.1001 41.7142 45.1703 41.8243 45.2505 41.9245C41.0611 48.2042 33.9651 52 25.0351 52C10.4523 52 0.5 43.3467 0.5 26.6109V21.8536H19.4726V26.8313C19.4726 34.7635 30.7379 34.6233 30.7379 26.6911V0H49.5Z" fill="#222222"/>
<path d="M86.1275 40.6075C86.0168 40.3873 85.906 40.167 85.8054 39.9467C85.7248 39.7765 85.6544 39.6163 85.5839 39.4461C85.4933 39.2359 85.4027 39.0256 85.3222 38.8054C85.2517 38.6452 85.1913 38.475 85.1309 38.3148C85.0302 38.0444 84.9396 37.7741 84.849 37.5038C84.7785 37.2835 84.7081 37.0633 84.6477 36.843C84.5873 36.6227 84.5268 36.3925 84.4664 36.1722C84.406 35.9519 84.3557 35.7217 84.3054 35.5014C84.255 35.2711 84.2047 35.0509 84.1644 34.8206C84.1141 34.5903 84.0839 34.37 84.0436 34.1398C83.8624 32.9984 83.7718 31.837 83.7718 30.6656V7.72807C79.1107 3.38286 73.0403 1 66.6376 1C60.2349 1 54.5369 3.2527 49.9362 7.3376C44.5705 12.0633 41.5 18.8714 41.5 26C41.5 31.3764 43.1913 36.4926 46.3825 40.7978C51.104 47.1854 58.6745 51 66.6376 51C74.6007 51 81.7584 47.3957 86.5 41.3184C86.3691 41.0881 86.2483 40.8478 86.1275 40.6075ZM66.6376 31.4666C63.6074 31.4666 61.1409 29.0136 61.1409 26C61.1409 22.9864 63.6074 20.5334 66.6376 20.5334C69.6678 20.5334 72.1342 22.9864 72.1342 26C72.1342 29.0136 69.6678 31.4666 66.6376 31.4666Z" fill="#005DDC"/>
<path d="M142.5 0V51H124.5V42.9782C124.815 42.5034 125.11 42.0083 125.394 41.5032C127.224 38.1995 128.189 34.4412 128.189 30.6323C128.189 26.8235 127.224 23.0652 125.394 19.7615C125.11 19.2563 124.815 18.7613 124.5 18.2864V0H142.5Z" fill="#222222"/>
<path d="M126.5 30.4681C126.5 33.9236 125.625 37.3389 123.976 40.3411C120.376 46.9198 113.487 51 106.005 51C98.5231 51 91.9361 47.081 88.2756 40.7542C86.4554 37.6613 85.5 34.0949 85.5 30.4681V1H101.309V30.4681C101.309 33.0673 103.41 35.1729 106.005 35.1729C108.6 35.1729 110.701 33.0673 110.701 30.4681C110.701 27.8688 108.6 25.7532 106.005 25.7532H104.326V9.92605H106.005C113.487 9.92605 120.376 14.0163 123.976 20.595C125.625 23.5972 126.5 27.0125 126.5 30.4681Z" fill="#222222"/>
<path d="M162.5 10H144.5V51H162.5V10Z" fill="#222222"/>
<path d="M205.5 30.5682V51H188.054V31.3617C188.054 26.3628 181.946 26.3628 181.946 31.3617V51H164.5V30.5682C164.5 3.14394 205.5 3.14394 205.5 30.5682Z" fill="#222222"/>
<path d="M11 17C15.1421 17 18.5 13.6421 18.5 9.5C18.5 5.35786 15.1421 2 11 2C6.85786 2 3.5 5.35786 3.5 9.5C3.5 13.6421 6.85786 17 11 17Z" fill="#005DDC"/>
</svg>
