<svg width="123" height="40" viewBox="0 0 123 40" fill="none" xmlns="http://www.w3.org/2000/svg">
<path d="M33.007 6.47266V9.10008C32.889 9.1968 32.7711 9.29888 32.6532 9.40097C29.5711 12.1466 27.8022 16.0904 27.8022 20.2223C27.8022 23.3387 28.7724 26.3046 30.6109 28.7977C30.6538 28.8514 30.6913 28.9105 30.7342 28.9643C28.4936 32.3332 24.6986 34.3696 19.9226 34.3696C12.1235 34.3696 6.80078 29.7272 6.80078 20.7489V18.1967H16.9477V20.8671C16.9477 25.1225 22.9726 25.0473 22.9726 20.7919V6.47266H33.007Z" fill="#222222"/>
<path d="M52.2554 27.9016C52.1972 27.7824 52.1389 27.6632 52.086 27.544C52.0436 27.452 52.0065 27.3653 51.9695 27.2732C51.9218 27.1595 51.8742 27.0457 51.8318 26.9265C51.7947 26.8399 51.763 26.7478 51.7312 26.6611C51.6782 26.5148 51.6306 26.3686 51.5829 26.2223C51.5459 26.1032 51.5088 25.984 51.477 25.8648C51.4452 25.7457 51.4135 25.6211 51.3817 25.5019C51.3499 25.3827 51.3234 25.2582 51.297 25.139C51.2705 25.0144 51.244 24.8952 51.2228 24.7706C51.1964 24.6461 51.1805 24.5269 51.1593 24.4023C51.064 23.7848 51.0163 23.1564 51.0163 22.5227V10.1128C48.5646 7.76186 45.3715 6.47266 42.0037 6.47266C38.6359 6.47266 35.6387 7.69144 33.2187 9.9015C30.3963 12.4582 28.7812 16.1417 28.7812 19.9984C28.7812 22.9073 29.6709 25.6752 31.3495 28.0045C33.833 31.4604 37.8151 33.5242 42.0037 33.5242C46.1923 33.5242 49.9573 31.5741 52.4514 28.2861C52.3825 28.1616 52.319 28.0316 52.2554 27.9016ZM42.0037 22.956C40.4098 22.956 39.1124 21.6289 39.1124 19.9984C39.1124 18.368 40.4098 17.0409 42.0037 17.0409C43.5976 17.0409 44.8949 18.368 44.8949 19.9984C44.8949 21.6289 43.5976 22.956 42.0037 22.956Z" fill="#005DDC"/>
<path d="M82.0373 5.62891V32.6805H72.7383V28.4255C72.9011 28.1737 73.0533 27.9111 73.2003 27.6431C74.1455 25.8908 74.6443 23.8973 74.6443 21.877C74.6443 19.8567 74.1455 17.8632 73.2003 16.1108C73.0533 15.8429 72.9011 15.5803 72.7383 15.3285V5.62891H82.0373Z" fill="#222222"/>
<path d="M73.5849 21.572C73.5849 23.4416 73.1158 25.2894 72.2317 26.9137C70.3017 30.4729 66.6088 32.6805 62.5979 32.6805C58.5869 32.6805 55.0558 30.5602 53.0934 27.1371C52.1176 25.4638 51.6055 23.5343 51.6055 21.572V5.62891H60.0802V21.572C60.0802 22.9783 61.207 24.1175 62.5979 24.1175C63.9888 24.1175 65.1155 22.9783 65.1155 21.572C65.1155 20.1658 63.9888 19.0211 62.5979 19.0211H61.6975V10.4582H62.5979C66.6088 10.4582 70.3017 12.6711 72.2317 16.2304C73.1158 17.8547 73.5849 19.7025 73.5849 21.572Z" fill="#222222"/>
<path d="M93.0255 11.5469H83.7266V32.6809H93.0255V11.5469Z" fill="#222222"/>
<path d="M116.698 21.7255V32.6786H107.346V22.1508C107.346 19.471 104.071 19.471 104.071 22.1508V32.6786H94.7188V21.7255C94.7188 7.0238 116.698 7.0238 116.698 21.7255Z" fill="#222222"/>
<path d="M12.2963 14.9286C14.3973 14.9286 16.1004 13.2254 16.1004 11.1244C16.1004 9.02348 14.3973 7.32031 12.2963 7.32031C10.1954 7.32031 8.49219 9.02348 8.49219 11.1244C8.49219 13.2254 10.1954 14.9286 12.2963 14.9286Z" fill="#005DDC"/>
</svg>
